<?xml version="1.0" encoding="UTF-8"?>
<svg id="Layer_1" data-name="Layer 1" xmlns="http://www.w3.org/2000/svg" xmlns:xlink="http://www.w3.org/1999/xlink" viewBox="0 0 1014.5 980.5">
  <defs>
    <style>
      .cls-1 {
        fill: url(#linear-gradient-6);
        filter: url(#drop-shadow-18);
      }

      .cls-2 {
        fill: url(#linear-gradient);
        filter: url(#drop-shadow-13);
      }

      .cls-3 {
        fill: #fff;
      }

      .cls-4 {
        filter: url(#outer-glow-22);
      }

      .cls-4, .cls-5, .cls-6, .cls-7, .cls-8, .cls-9 {
        fill: none;
        stroke: #BEBDF6;
        stroke-miterlimit: 10;
      }

      .cls-4, .cls-6, .cls-7, .cls-8, .cls-9 {
        stroke-width: 9.15px;
      }

      .cls-5 {
        filter: url(#outer-glow-19);
        stroke-width: 9.15px;
      }

      .cls-10 {
        fill: url(#linear-gradient-3);
        filter: url(#drop-shadow-15);
      }

      .cls-6 {
        filter: url(#outer-glow-21);
      }

      .cls-11 {
        fill: #5C59E8;
      }

      .cls-7 {
        filter: url(#outer-glow-23);
      }

      .cls-12 {
        fill: #BEBDF6;
      }

      .cls-8 {
        filter: url(#outer-glow-24);
      }

      .cls-9 {
        filter: url(#outer-glow-20);
      }

      .cls-13 {
        fill: url(#linear-gradient-5);
        filter: url(#drop-shadow-17);
      }

      .cls-14 {
        fill: url(#linear-gradient-2);
        filter: url(#drop-shadow-14);
      }

      .cls-15 {
        fill: url(#linear-gradient-4);
        filter: url(#drop-shadow-16);
      }
    </style>
    <linearGradient id="linear-gradient" x1="606.5" y1="640.52" x2="748.24" y2="886.01" gradientUnits="userSpaceOnUse">
      <stop offset="0" stop-color="#fff"/>
      <stop offset=".59" stop-color="#fdfdfd"/>
      <stop offset=".81" stop-color="#f6f6f6"/>
      <stop offset=".96" stop-color="#eaeaea"/>
      <stop offset="1" stop-color="#e6e6e6"/>
    </linearGradient>
    <filter id="drop-shadow-13" filterUnits="userSpaceOnUse">
      <feOffset dx="5.67" dy="5.67"/>
      <feGaussianBlur result="blur" stdDeviation="11.34"/>
      <feFlood flood-color="#000" flood-opacity=".23"/>
      <feComposite in2="blur" operator="in"/>
      <feComposite in="SourceGraphic"/>
    </filter>
    <linearGradient id="linear-gradient-2" x1="276.46" y1="653.74" x2="418.2" y2="899.22" xlink:href="#linear-gradient"/>
    <filter id="drop-shadow-14" filterUnits="userSpaceOnUse">
      <feOffset dx="5.67" dy="5.67"/>
      <feGaussianBlur result="blur-2" stdDeviation="11.34"/>
      <feFlood flood-color="#000" flood-opacity=".23"/>
      <feComposite in2="blur-2" operator="in"/>
      <feComposite in="SourceGraphic"/>
    </filter>
    <linearGradient id="linear-gradient-3" x1="761.74" y1="351.04" x2="903.48" y2="596.53" xlink:href="#linear-gradient"/>
    <filter id="drop-shadow-15" filterUnits="userSpaceOnUse">
      <feOffset dx="5.67" dy="5.67"/>
      <feGaussianBlur result="blur-3" stdDeviation="11.34"/>
      <feFlood flood-color="#000" flood-opacity=".23"/>
      <feComposite in2="blur-3" operator="in"/>
      <feComposite in="SourceGraphic"/>
    </filter>
    <linearGradient id="linear-gradient-4" x1="101.36" y1="372.19" x2="243.1" y2="617.68" xlink:href="#linear-gradient"/>
    <filter id="drop-shadow-16" filterUnits="userSpaceOnUse">
      <feOffset dx="5.67" dy="5.67"/>
      <feGaussianBlur result="blur-4" stdDeviation="11.34"/>
      <feFlood flood-color="#000" flood-opacity=".23"/>
      <feComposite in2="blur-4" operator="in"/>
      <feComposite in="SourceGraphic"/>
    </filter>
    <linearGradient id="linear-gradient-5" x1="586.34" y1="72.14" x2="728.07" y2="317.63" xlink:href="#linear-gradient"/>
    <filter id="drop-shadow-17" filterUnits="userSpaceOnUse">
      <feOffset dx="5.67" dy="5.67"/>
      <feGaussianBlur result="blur-5" stdDeviation="11.34"/>
      <feFlood flood-color="#000" flood-opacity=".23"/>
      <feComposite in2="blur-5" operator="in"/>
      <feComposite in="SourceGraphic"/>
    </filter>
    <linearGradient id="linear-gradient-6" x1="256.3" y1="82.72" x2="398.03" y2="328.2" xlink:href="#linear-gradient"/>
    <filter id="drop-shadow-18" filterUnits="userSpaceOnUse">
      <feOffset dx="5.67" dy="5.67"/>
      <feGaussianBlur result="blur-6" stdDeviation="11.34"/>
      <feFlood flood-color="#000" flood-opacity=".23"/>
      <feComposite in2="blur-6" operator="in"/>
      <feComposite in="SourceGraphic"/>
    </filter>
    <filter id="outer-glow-19" filterUnits="userSpaceOnUse">
      <feOffset dx="0" dy="0"/>
      <feGaussianBlur result="blur-7" stdDeviation="8.5"/>
      <feFlood flood-color="#000" flood-opacity=".1"/>
      <feComposite in2="blur-7" operator="in"/>
      <feComposite in="SourceGraphic"/>
    </filter>
    <filter id="outer-glow-20" filterUnits="userSpaceOnUse">
      <feOffset dx="0" dy="0"/>
      <feGaussianBlur result="blur-8" stdDeviation="8.5"/>
      <feFlood flood-color="#000" flood-opacity=".1"/>
      <feComposite in2="blur-8" operator="in"/>
      <feComposite in="SourceGraphic"/>
    </filter>
    <filter id="outer-glow-21" filterUnits="userSpaceOnUse">
      <feOffset dx="0" dy="0"/>
      <feGaussianBlur result="blur-9" stdDeviation="8.5"/>
      <feFlood flood-color="#000" flood-opacity=".1"/>
      <feComposite in2="blur-9" operator="in"/>
      <feComposite in="SourceGraphic"/>
    </filter>
    <filter id="outer-glow-22" filterUnits="userSpaceOnUse">
      <feOffset dx="0" dy="0"/>
      <feGaussianBlur result="blur-10" stdDeviation="8.5"/>
      <feFlood flood-color="#000" flood-opacity=".1"/>
      <feComposite in2="blur-10" operator="in"/>
      <feComposite in="SourceGraphic"/>
    </filter>
    <filter id="outer-glow-23" filterUnits="userSpaceOnUse">
      <feOffset dx="0" dy="0"/>
      <feGaussianBlur result="blur-11" stdDeviation="8.5"/>
      <feFlood flood-color="#000" flood-opacity=".1"/>
      <feComposite in2="blur-11" operator="in"/>
      <feComposite in="SourceGraphic"/>
    </filter>
    <filter id="outer-glow-24" filterUnits="userSpaceOnUse">
      <feOffset dx="0" dy="0"/>
      <feGaussianBlur result="blur-12" stdDeviation="8.5"/>
      <feFlood flood-color="#000" flood-opacity=".1"/>
      <feComposite in2="blur-12" operator="in"/>
      <feComposite in="SourceGraphic"/>
    </filter>
  </defs>
  <polygon class="cls-12" points="657.21 575.55 657.21 396.64 502.27 307.18 347.33 396.64 347.33 575.55 502.27 665 657.21 575.55"/>
  <polygon class="cls-2" points="819.1 845.09 819.1 681.43 677.37 599.6 535.64 681.43 535.64 845.09 677.37 926.92 819.1 845.09"/>
  <polygon class="cls-14" points="489.06 858.31 489.06 694.65 347.33 612.82 205.6 694.65 205.6 858.31 347.33 940.14 489.06 858.31"/>
  <polygon class="cls-10" points="974.34 555.62 974.34 391.96 832.61 310.13 690.88 391.96 690.88 555.62 832.61 637.45 974.34 555.62"/>
  <polygon class="cls-15" points="313.96 576.76 313.96 413.11 172.23 331.28 30.5 413.11 30.5 576.76 172.23 658.59 313.96 576.76"/>
  <polygon class="cls-13" points="798.94 276.72 798.94 113.06 657.21 31.23 515.48 113.06 515.48 276.72 657.21 358.54 798.94 276.72"/>
  <polygon class="cls-1" points="468.9 287.29 468.9 123.63 327.17 41.8 185.44 123.63 185.44 287.29 327.17 369.12 468.9 287.29"/>
  <g>
    <path class="cls-3" d="M472.91,502.19c-4.2-2.43-8.37-4.92-12.63-7.24-1.48-.8-1.93-1.78-1.92-3.42,.07-11.82-.03-23.63,.09-35.45,.03-2.78-.93-4.5-3.33-5.87-11.25-6.39-22.45-12.87-33.62-19.4-2.21-1.28-4.08-1.32-6.31-.01-11.24,6.57-22.56,13.01-33.8,19.57-1.21,.71-2.13,1.89-3.18,2.86v44.21c1.15,.97,2.18,2.15,3.46,2.89,11.03,6.44,22.14,12.75,33.15,19.23,2.47,1.45,4.5,1.49,6.96,.04,10.31-6.07,20.72-11.97,31.06-18.01,1.28-.75,2.24-.75,3.51,.01,4.09,2.46,8.21,4.87,12.43,7.1,1.09,.58,2.76,.91,3.82,.48,1.05-.42,2.01-1.82,2.37-3,.52-1.72-.53-3.1-2.06-3.98Zm-55.39-31.93c-9.14-5.17-18.23-10.43-27.6-15.83,3.32-1.93,6.38-3.71,9.44-5.49,5.81-3.36,11.6-6.75,17.46-10.02,.75-.42,2.09-.55,2.78-.16,8.8,4.96,17.53,10.05,26.28,15.11,.21,.12,.36,.31,.71,.63-3.93,2.26-7.76,4.46-11.59,6.68-5.04,2.91-10.07,5.85-15.13,8.71-.66,.37-1.8,.67-2.35,.36Zm-31.47,22.22c-.09-10.27-.06-20.53-.06-31.08,.74,.31,1.33,.49,1.84,.79,8.33,4.8,16.67,9.57,24.94,14.47,.79,.46,1.6,1.66,1.61,2.53,.12,9.86,.07,19.72,.06,29.59,0,.31-.06,.63-.16,1.43-3.91-2.26-7.53-4.35-11.14-6.44-5.24-3.03-10.51-6.03-15.7-9.14-.67-.4-1.39-1.41-1.4-2.14Zm36.24-12.79c.01-.99,.63-2.43,1.42-2.9,8.48-5.04,17.04-9.93,25.58-14.85,.32-.19,.69-.3,1.21-.53v27.83c-4.21-2.41-8.16-4.71-12.15-6.94-.82-.47-1.76-.9-2.68-1-1.93-.21-3.33,.8-3.89,2.6-.6,1.91,.08,3.54,1.83,4.58,3.26,1.93,6.57,3.8,9.86,5.7,.97,.56,1.93,1.14,3.27,1.94-8.2,4.74-16.11,9.31-24.3,14.04-.08-.97-.2-1.64-.21-2.31,0-9.38-.05-18.77,.06-28.16Z"/>
    <path class="cls-3" d="M558.87,432.64c-4.69-2.72-9.33-5.52-14.08-8.1-1.69-.92-2.16-2.01-2.13-3.82,.1-5.91,.04-11.82,.04-17.72s-.06-11.81,.03-17.72c.04-2.63-.9-4.35-3.24-5.68-11.25-6.38-22.44-12.85-33.6-19.39-2.28-1.34-4.19-1.42-6.52-.05-11.08,6.51-22.21,12.93-33.4,19.25-2.58,1.46-3.6,3.3-3.58,6.23,.1,11.73,0,23.47,.09,35.19,.02,1.9-.61,2.89-2.23,3.77-4.54,2.47-9.01,5.09-13.44,7.75-.98,.59-2.26,1.57-2.38,2.5-.17,1.34,.24,3.08,1.06,4.13,1.17,1.49,3.02,1.29,4.65,.35,4.7-2.69,9.44-5.31,14.06-8.13,1.58-.96,2.71-1,4.33-.05,10.16,5.98,20.45,11.78,30.6,17.79,2.49,1.48,4.5,1.41,6.94-.03,10.23-6.03,20.57-11.9,30.82-17.9,1.36-.79,2.36-.82,3.71,0,4.57,2.76,9.18,5.44,13.86,8.01,1.05,.58,2.61,1.12,3.59,.75,1.15-.43,2.34-1.71,2.78-2.9,.67-1.77-.33-3.27-1.98-4.22Zm-52.36-23.91c0-.81,.41-2.01,1.02-2.37,8.9-5.25,17.88-10.39,27.14-15.73v27.97c-3.15-1.81-6.07-3.48-8.98-5.16-.7-.4-1.39-.84-2.12-1.18-2.1-.97-4.26-.36-5.27,1.46-1.04,1.88-.52,4,1.48,5.24,2.68,1.65,5.45,3.16,8.18,4.74,.89,.52,1.75,1.07,2.98,1.82-8.22,4.74-16.15,9.31-24.47,14.1v-7.6c0-7.77-.03-15.54,.05-23.3Zm-4.98-9.23c-8.91-5.09-17.78-10.24-26.66-15.39-.11-.06-.14-.27-.3-.59,3.32-1.93,6.65-3.86,9.99-5.79,5.45-3.15,10.89-6.34,16.39-9.42,.73-.41,1.97-.72,2.58-.38,9.07,5.12,18.06,10.36,27.5,15.81-9.46,5.47-18.47,10.69-27.51,15.85-.49,.29-1.46,.21-1.98-.09Zm-2.85,37.53v2.62c-8.35-4.82-16.22-9.38-24.47-14.15,3.3-1.91,6.26-3.63,9.22-5.35,.77-.45,1.56-.86,2.26-1.4,1.74-1.31,2.15-3.4,1.08-5.16-1.08-1.78-3.24-2.38-5.31-1.25-3.61,1.97-7.14,4.06-11.01,6.28v-27.87c.57,.27,1.06,.46,1.52,.72,8.26,4.76,16.5,9.56,24.78,14.26,1.44,.81,1.99,1.72,1.97,3.4-.09,9.3-.05,18.6-.05,27.9Z"/>
    <path class="cls-3" d="M626.27,480.92c0-1.86,0-3.72,0-5.57s0-3.73,0-5.59c-.02-4.61-.03-9.39,.05-14.09,.04-2.24-.75-3.61-2.71-4.73-12.18-6.96-23.31-13.38-34.04-19.64-1.94-1.13-3.52-1.14-5.44,0-11.56,6.77-22.94,13.34-33.83,19.53-2.14,1.21-2.95,2.63-2.93,5.08,.06,6.62,.05,13.35,.05,19.86,0,5.27,0,10.72,.03,16.07,0,1.75-.6,2.8-2.08,3.61-3.49,1.93-7,3.97-10.39,5.93l-1.81,1.05c-2.3,1.34-3.04,3.12-2.03,4.89,1.32,2.3,3.58,1.67,5.24,.72l1.87-1.06c3.33-1.88,6.77-3.83,10.07-5.85,.81-.5,1.54-.75,2.27-.75s1.49,.25,2.34,.75c5.18,3.04,10.47,6.09,15.58,9.04,5.07,2.93,10.32,5.96,15.47,8.97,2.04,1.2,3.69,1.21,5.67,.06,10.29-6.02,21.42-12.45,34.03-19.66,1.89-1.08,2.66-2.39,2.63-4.52-.06-4.7-.05-9.48-.04-14.1Zm-7.15,11.78c0,.54-.32,1.34-.75,1.58-9.05,5.28-18.14,10.5-27.52,15.9-.08-.98-.18-1.67-.18-2.35,0-9.46-.05-18.92,.06-28.39,0-.9,.66-2.2,1.41-2.64,8.62-5.1,17.32-10.07,26-15.06,.19-.11,.43-.14,1.01-.33,0,10.6,.01,20.94-.03,31.29Zm-35.59,11.08v5.29c0,.23-.06,.42-.12,.68-.03,.13-.07,.3-.12,.51l-.19,.87-26.02-15.02,12.03-6.99c.22-.12,.45-.25,.67-.38,.49-.27,.95-.53,1.38-.82,1.71-1.17,2.2-2.82,1.31-4.4-.93-1.67-2.78-2.12-4.58-1.13-2.48,1.36-4.97,2.81-7.38,4.21-1.11,.65-2.23,1.29-3.34,1.93-.41,.24-.83,.47-1.32,.73l-1.78,.99v-29.92l.95,.48c.25,.12,.47,.24,.7,.35,.46,.23,.9,.44,1.32,.69l4.32,2.49c6.57,3.78,13.38,7.7,20.02,11.62,.99,.58,2.07,1.89,2.08,3,.1,8.27,.08,16.68,.06,24.82Zm3.3-32.75h-.01c-1.85,0-3.61-1.23-5.31-2.41-.66-.45-1.33-.92-1.98-1.29-5.12-2.94-10.23-5.89-15.43-8.9l-6.96-4.02,6.99-4.06c5.13-2.97,10.15-5.89,15.19-8.8,.66-.38,1.34-.85,2.01-1.3,1.77-1.22,3.6-2.48,5.51-2.48h0c1.91,0,3.74,1.25,5.5,2.47,.67,.45,1.36,.93,2.01,1.3,5.63,3.23,11.25,6.48,16.87,9.73l1.83,1.06c.51,.3,1.01,.62,1.58,.98,.28,.18,.57,.37,.9,.57l.92,.58-7.11,4.11c-5.12,2.96-10.16,5.87-15.22,8.78-.64,.37-1.31,.83-1.96,1.28-1.71,1.18-3.48,2.4-5.33,2.4Z"/>
    <path class="cls-3" d="M542.04,549.29c0-1.85,.01-3.7,.01-5.55s0-3.72,0-5.57c-.01-4.62-.02-9.4,.03-14.1,.02-2.23-.79-3.65-2.7-4.74-11.54-6.58-22.99-13.19-34.03-19.66-.97-.56-1.84-.85-2.73-.85s-1.86,.31-2.91,.93c-10.99,6.45-22.38,13.02-33.83,19.52-2.01,1.14-2.82,2.57-2.81,4.93,.06,12.89,.06,25.96,0,38.85,0,2.36,.8,3.78,2.81,4.93,11.93,6.78,23,13.17,33.82,19.53,2.08,1.22,3.72,1.2,5.86-.05,11.59-6.79,22.9-13.32,33.62-19.4,2.1-1.19,2.93-2.67,2.9-5.12-.07-4.55-.06-9.17-.05-13.64Zm-42.7,22.69v5.35c0,.25-.04,.46-.08,.75-.03,.14-.05,.31-.08,.5l-.12,.95-2.05-1.14c-.8-.43-1.54-.85-2.28-1.27-2.15-1.25-4.31-2.49-6.46-3.74-5.31-3.08-10.8-6.26-16.24-9.31-1.82-1.02-2.51-2.25-2.49-4.39,.08-6.68,.06-13.49,.05-20.06,0-2.38,0-4.76,0-7.13v-3.67l.9,.38c.3,.12,.56,.22,.8,.32,.46,.18,.86,.33,1.24,.55l3.18,1.82c7.09,4.08,14.42,8.3,21.58,12.54,.95,.56,1.97,1.91,1.99,3.04,.1,8.17,.08,16.48,.08,24.52Zm4.56-32.84c-.34,.19-.76,.27-1.2,.27-.58,0-1.18-.15-1.6-.38-7.28-4.15-14.39-8.26-21.92-12.62l-6.03-3.48,.82-.58c.21-.15,.4-.29,.58-.43,.37-.28,.72-.55,1.1-.77l2.62-1.52c7.32-4.24,14.88-8.62,22.36-12.86,.75-.42,2.28-.9,3.23-.36,7.29,4.11,14.45,8.25,22.02,12.63l6.44,3.72-6.04,3.5c-7.7,4.45-14.98,8.66-22.39,12.88Zm31.62,21.25c-.01,1.16-.84,2.65-1.77,3.19-6.92,4.1-14,8.18-20.84,12.13l-4.96,2.86c-.18,.1-.38,.19-.66,.32-.15,.06-.32,.14-.54,.24l-.92,.43v-10.6c0-6.78,.01-13.8-.03-20.69-.01-1.67,.36-2.99,2.21-4.03,5.96-3.35,11.97-6.83,17.79-10.2,2.27-1.32,4.54-2.63,6.81-3.94,.32-.19,.67-.36,1.08-.56,.21-.1,.44-.22,.7-.35l.82-.41,.12,.9c.03,.25,.07,.49,.1,.7,.08,.46,.14,.9,.15,1.34v3.92c.02,8.11,.03,16.5-.06,24.74Z"/>
  </g>
  <g>
    <path class="cls-11" d="M379.71,179.73c-7.94-16.2-22.52-27.66-40-31.44-1.74-.38-3.57-.61-5.34-.83-.87-.11-1.77-.23-2.65-.35-.27-.04-.53-.09-.78-.15-.06-.01-.12-.03-.18-.04h-7.26c-.68,.09-1.37,.18-2.05,.27-1.49,.19-3.03,.39-4.52,.63-23.43,3.85-42.84,22.86-47.21,46.21-.33,1.77-.57,3.6-.8,5.36-.11,.81-.22,1.63-.33,2.44v7.3c.09,.67,.18,1.34,.26,2.01,.18,1.46,.38,2.97,.62,4.43,3.99,23.36,22.21,42.31,45.35,47.15,26.69,5.58,53.51-7.59,65.23-32.03,7.75-16.17,7.63-34.75-.32-50.98Zm-52.56,79.36h-.01c-7.15,0-14.09-1.41-20.51-4.08-6.42-2.67-12.32-6.62-17.4-11.7-10.14-10.16-15.7-23.62-15.67-37.89,.06-29.52,24.1-53.53,53.6-53.53h.01c14.31,0,27.78,5.6,37.92,15.78,10.13,10.16,15.7,23.61,15.67,37.89-.06,29.52-24.1,53.54-53.6,53.54Z"/>
    <path class="cls-11" d="M341.36,224.93c-1.86,4.11-5.38,7.22-9.68,8.53l-2.05,.62v.93c0,.42,0,.84,0,1.25,0,.93,0,1.81,0,2.71-.02,1.51-1.05,2.62-2.45,2.64h-.03c-1.42,0-2.46-1.12-2.48-2.66-.01-.87,0-1.75,0-2.65,0-.42,0-.84,0-1.27v-.89l-.84-.29c-.25-.08-.5-.17-.75-.25-.51-.17-1.01-.34-1.51-.53-5.74-2.12-9.84-7.88-9.97-14.01-.02-.94,.25-1.75,.76-2.28,.42-.44,.99-.67,1.66-.69h.06c1.45,0,2.42,1.08,2.49,2.78,.24,5.85,4.88,10.3,10.64,10.3,.13,0,.27,0,.4,0,2.78-.1,5.37-1.29,7.29-3.35,1.95-2.1,2.97-4.85,2.86-7.72-.22-5.57-4.8-9.93-10.67-10.13-6.69-.23-11.46-3.39-14.17-9.36-1.82-4.02-1.79-8.65,.08-12.68,1.92-4.13,5.55-7.22,9.95-8.47,.22-.06,.43-.14,.63-.22,.09-.03,.18-.06,.27-.1l.83-.3v-.89c0-.41,0-.83,0-1.24,0-.89,0-1.81,0-2.71,.02-1.53,1.03-2.62,2.45-2.64h.03c1.42,0,2.46,1.11,2.48,2.66,.01,.87,.01,1.73,0,2.64,0,.42,0,.85,0,1.28v.92l1.26,.4c.28,.09,.55,.18,.82,.26,6.33,1.91,10.85,7.84,11,14.39,.02,.94-.25,1.75-.76,2.29-.42,.44-.99,.68-1.65,.69-1.48,.03-2.48-1.06-2.55-2.78-.24-5.97-5.09-10.5-11.03-10.29-2.78,.1-5.36,1.28-7.28,3.34-1.96,2.1-2.98,4.85-2.87,7.73,.2,5.58,4.79,9.93,10.66,10.14,6.68,.23,11.45,3.38,14.17,9.36,1.8,3.96,1.79,8.53-.03,12.55Z"/>
  </g>
  <g>
    <path class="cls-11" d="M246.47,546.7c-.17-1.94-1.37-3.52-3.37-4.44-.99-.45-1.39-1.12-1.36-2.22,.04-1.59,.03-3.21,.02-4.78v-.91c-.02-2.4-.73-3.09-3.15-3.1-.31,0-.63,0-.98,0h-1.19v-39.87h.59c.23,0,.46,0,.7,0,.51,0,1.03,.01,1.54,0,1.61-.06,2.44-.88,2.47-2.45,.02-1.37,.02-2.76,.02-4.1,0-1.63,0-3.32,.04-4.98,.02-.69,.51-1.55,1.1-1.93,1.95-1.24,3.14-3.12,3.25-5.16,.11-2.02-.85-4.02-2.65-5.47-4.7-3.79-9.51-7.61-14.16-11.31-2-1.59-4-3.17-5.99-4.76l-11.04-8.78c-11.48-9.14-23.36-18.58-35.02-27.9-2.22-1.77-4.21-2.8-6.68-2.04-.92,.28-1.8,.74-2.51,1.3-21.48,17.04-44.08,35.01-67.18,53.41-1.85,1.47-2.82,3.39-2.73,5.4,.09,2.04,1.31,3.97,3.34,5.29,.54,.36,.98,1.17,1,1.84,.05,1.96,.04,3.95,.04,5.87,0,.74,0,1.47,0,2.2,0,2.89,.62,3.52,3.48,3.54,.29,0,.58,0,.89,0h1.06v39.89h-1.23c-.44,0-.86,0-1.28,0-2.07,.02-2.89,.85-2.92,2.93-.03,2.13-.03,4.04,0,5.84,.02,.81-.07,1.71-1.32,2.25-1.94,.84-2.85,2.63-3.47,4.29v8.27c1.79,4.19,3.22,5.1,7.88,5.1H239.57c3.89,0,6.46-1.89,6.88-5.05,.31-2.32,.31-4.92,.03-8.19Zm-9.56-10.68l.07,.51c.02,.11,.03,.22,.05,.31,.04,.23,.07,.45,.07,.68,0,.78,0,1.55,0,2.36v1.55h-26.78v-5.42h26.58Zm-31.35,2.65c0,.72,0,1.44,0,2.18v.59h-15.27v-.59c0-.57,0-1.14-.02-1.7-.02-1.25-.04-2.55,.04-3.82,.1-1.73-.15-2.81-.78-3.42-.59-.58-1.61-.79-3.12-.66-.24,.02-.47,0-.69-.02-.1,0-.2-.02-.31-.03l-.55-.03v-39.77h2.39c2.26-.02,3.03-.8,3.04-3.09,0-1.57,0-3.13,0-4.69v-3.21c0-.25,.02-.49,.05-.76,.01-.13,.02-.27,.04-.42l.04-.55h15.14v8.83c0,3.31,.42,3.73,3.78,3.8,.2,0,.4,.02,.63,.04l.92,.06v39.85h-.59c-.22,0-.45,0-.68,0-.5,0-1.01,0-1.52,0-1.66,.05-2.51,.91-2.54,2.54-.02,1.62-.02,3.2-.02,4.88Zm-51.52,.04c0,.71,0,1.42,0,2.15v.59h-15.25v-6.36c0-3.32-.45-3.78-3.75-3.84-.23,0-.47-.02-.73-.05-.12-.01-.25-.02-.39-.03l-.54-.04v-39.75h1.33c.51,0,.99,0,1.47,0,1.72-.05,2.6-.93,2.61-2.62,.02-2.18,.02-4.32,.01-6.58,0-.96,0-1.92,0-2.89v-.59h15.25v9.18c0,2.76,.65,3.4,3.45,3.42,.29,0,.58,0,.89,0h1.08v39.95h-1.26c-.49,0-.97,0-1.45,0-1.82,.04-2.68,.89-2.71,2.69-.02,1.58-.02,3.12-.01,4.76Zm4.72-52.09v-7.81h26.8v7.81h-26.8Zm21.25,4.87v39.72h-15.68v-39.72h15.68Zm-21.23,44.56h26.78v5.39h-26.78v-5.39Zm56.97-4.92v-39.66h15.81v39.66h-15.81Zm21.22-44.55h-26.69v-7.76h26.69v7.76Zm-130.77-12.62c-.08,0-.16,0-.23,.01-.25,.02-.52,.04-.81-.05-.48-.15-.95-.33-1.4-.5-.18-.07-.36-.14-.54-.21l-.7-.26,.42-.62c.11-.16,.2-.32,.3-.49,.25-.43,.5-.87,.92-1.2,9.51-7.59,19.02-15.17,28.53-22.76,12.31-9.81,25.03-19.95,37.53-29.94,1.4-1.12,2.48-1.12,3.86-.02,17.97,14.34,36.26,28.89,53.95,42.96l11.94,9.49s.09,.07,.14,.11c.18,.13,.4,.28,.55,.52,.21,.35,.38,.72,.54,1.07,.07,.14,.13,.27,.2,.41l.27,.56-.57,.24c-.14,.06-.29,.13-.43,.2-.37,.17-.75,.35-1.17,.45-.22,.05-.43,.07-.64,.07-.15,0-.3,0-.44-.02-.13,0-.25-.01-.38-.01H106.22Zm1.08,12.64v-7.82h26.75v7.82h-26.75Zm21.22,4.89v39.7h-15.67v-39.7h15.67Zm-21.22,44.57h26.75v5.41h-26.75v-5.41Zm134.14,18.67c-.34,.34-.83,.51-1.46,.51-.04,0-.09,0-.13,0-.25,0-.51,0-.76,0H105.66c-2.94,0-3.21-.27-3.21-3.28,0-.38,0-.75,0-1.12,0-.83,.01-1.68-.02-2.52-.02-.69,.15-1.23,.51-1.59,.36-.36,.9-.54,1.59-.52,.19,0,.38,0,.57,0h.29s133.47,0,133.47,0c2.82,0,3.08,.27,3.08,3.14,0,.39,0,.78,0,1.17,0,.87-.01,1.75,.01,2.63,.02,.69-.16,1.23-.52,1.59Z"/>
    <path class="cls-11" d="M180.91,451.18c-.25,3.23-1.82,5.46-4.67,6.62-1.26,.51-1.73,1.23-1.69,2.57,.03,.99-.2,1.78-.67,2.27-.38,.4-.91,.6-1.58,.61h-.03c-.66,0-1.19-.2-1.58-.6-.51-.51-.76-1.33-.74-2.37,.03-1.39-.67-1.94-1.52-2.46-1.69-1.04-3.16-2.23-4.37-3.52-.45-.48-.67-1.04-.63-1.62,.04-.62,.38-1.23,.92-1.67,.45-.36,.95-.55,1.46-.55,.08,0,.16,0,.23,.01,.65,.07,1.24,.43,1.72,1.05,1.51,1.93,3.53,2.66,6.01,2.19,2.26-.43,2.35-1.82,2.27-2.4-.1-.88-.8-1.92-1.55-2.33-1.07-.57-2.33-1.01-3.86-1.32-2.26-.47-4.24-1.8-5.42-3.66-1.03-1.62-1.37-3.49-.96-5.27,.47-2.04,1.74-3.52,3.66-4.28,1.65-.65,1.95-1.7,1.91-3.08-.03-.9,.2-1.64,.66-2.11,.39-.4,.94-.61,1.6-.62h.02c.67,0,1.27,.23,1.69,.67,.41,.43,.61,1.03,.58,1.71-.1,1.91,.61,3.02,2.43,3.82,1.04,.45,1.99,1.36,2.8,2.18,.47,.47,.72,1.07,.71,1.68-.01,.62-.28,1.21-.76,1.65-.47,.44-1.06,.66-1.64,.63-.61-.03-1.21-.34-1.67-.87-1.73-2-3.75-2.58-5.99-1.72-.64,.24-1.37,1.03-1.39,1.73-.02,.74,.47,1.68,1.08,2.05,.5,.31,1.06,.44,1.6,.57,.3,.07,.59,.14,.85,.24,.45,.16,.91,.32,1.37,.47,1.21,.41,2.46,.83,3.55,1.44,1.79,1,3.87,2.9,3.61,6.28Z"/>
  </g>
  <path class="cls-11" d="M403.99,779.74l-23.01-38.27,33.45-19.94-2.37-3.98-.46,.27c-.54,.32-1.05,.61-1.56,.92l-7.6,4.53c-7.98,4.76-16.22,9.67-24.36,14.48-.97,.58-1.48,1.25-1.81,2.41-.41,1.44-.25,2.47,.54,3.46,.32,.4,.56,.86,.79,1.3,.1,.2,.2,.39,.31,.57l.21,.36-.37,.18c-3.5,1.72-3.63,1.74-7.05,.84-1.26-.33-2.52-.67-3.77-1-3.21-.85-6.53-1.73-9.81-2.55-.32-.08-.64-.16-.96-.25-1.45-.38-2.94-.78-4.34-.67-9.31,.73-18.18,2.54-26.35,5.38-1.78,.62-3.25,.61-5.06-.01-2.27-.78-4.56-1.62-6.77-2.43-.93-.34-1.86-.68-2.79-1.02l-.4-.14,.17-.38c1.28-2.87,.72-4.82-1.81-6.32-2.38-1.41-4.75-2.83-7.13-4.25l-26.34-15.7-2.38,3.99,33.46,19.95-23.02,38.27-7.07-4.95-2.67,3.8c.68,.47,1.35,.94,2.01,1.4,1.89,1.32,3.69,2.56,5.47,3.88,1.03,.76,1.91,1.15,3.12,.76,.56-.18,1.43,.21,1.79,.66,.41,.52,.77,1.08,1.12,1.62,.51,.78,.98,1.52,1.59,2.14,1.95,2,2.27,3.93,1.1,6.69-.88,2.06-.83,4.26,.14,6.2,.99,1.99,2.86,3.45,5.11,4.01,1.3,.32,1.62,.97,1.77,2.07,.51,3.78,3.3,6.36,7.13,6.59,.47,.03,.96,.02,1.44,.01,.22,0,.45,0,.67,0h.37l.02,.37c.22,3.78,1.12,6.17,2.84,7.54,1.88,1.49,4.88,1.82,9.42,1.03l.34-.06,.11,.32c1.08,3.31,3.51,5.47,6.67,5.92,3.23,.47,6.46-1.02,8.43-3.87,.44-.65,.93-1.24,1.39-1.83,.2-.25,.4-.5,.59-.74l.18-.23,.27,.1c1.56,.57,3.1,1.14,4.64,1.71,3.46,1.28,7.03,2.61,10.56,3.82,4.11,1.42,8.23,.02,10.74-3.66,.38-.56,.72-1.17,1.05-1.76,.15-.28,.31-.56,.47-.84l.14-.24,.27,.05c3.68,.73,6.07-.47,7.43-1.6,1.92-1.6,2.99-4.06,2.95-6.76v-.33s.32-.06,.32-.06c5.87-1.12,7.63-3.11,8.58-9.69l.04-.28,.28-.05c6.38-1.18,8.79-4.48,8.06-11.04-.05-.41,.09-1.02,.43-1.33,2.04-1.89,4.08-3.74,6.05-5.52l1.66-1.51,.18,.02c.53,.07,1.08,.21,1.62,.34,1.03,.26,2.09,.52,2.68,.2,2.29-1.26,4.38-2.78,6.6-4.39,.74-.54,1.51-1.1,2.28-1.64l-2.67-3.8-7.08,4.94Zm-104.92,20.91c-.32,.39-.78,.62-1.08,.78-.07,.04-.14,.07-.18,.1l-.1,.06h-.13c-1.43,0-2.6-.54-3.22-1.49-.56-.86-.6-1.93-.12-3.01,.9-2.04,2.13-3.92,3.43-5.82,.7-1.04,1.67-1.91,2.61-2.7,.87-.73,1.97-1.03,3.03-.82,1,.19,1.85,.82,2.34,1.73,.61,1.15,.54,2.18-.23,3.14-1.03,1.29-2.07,2.61-3.07,3.9-1.06,1.36-2.16,2.77-3.27,4.14Zm6.84,9.13c-.5,.21-.99,.31-1.45,.31-.98,0-1.86-.45-2.43-1.32-.96-1.41-.93-2.98,.08-4.29,2.49-3.23,5.05-6.49,7.52-9.63l.59-.75c.13-.17,.26-.34,.39-.51,.47-.63,.96-1.27,1.58-1.77,.61-.49,1.32-.84,2-1.19,.29-.14,.58-.29,.87-.45l.11-.06,.13,.02c1.45,.18,2.6,.79,3.24,1.73,.57,.83,.73,1.88,.45,3.02-.22,.89-.65,2.16-1.46,3.17-2.13,2.66-4.98,6.15-8.04,9.52-.92,1.01-2.25,1.66-3.56,2.2Zm12.97,7.76c-.83,.9-2.21,1.64-3.71,1.97-.29,.06-.57,.1-.85,.1-.85,0-1.61-.3-2.18-.87-.76-.75-1.05-1.85-.79-3.02,.27-1.24,.81-3.01,1.89-4.4,2.07-2.65,4.42-5.34,7.21-8.25,.59-.61,1.42-.94,2.23-1.26,.36-.14,.7-.28,1.02-.44l.11-.05,.12,.02c1.28,.17,2.34,.76,3.01,1.64,.58,.78,.81,1.73,.65,2.76-.1,.63-.38,1.83-1.08,2.72-2.49,3.14-4.95,6.2-7.61,9.09Zm16.83-2.61c-.03,.08-.05,.17-.08,.28-.09,.34-.2,.8-.47,1.19-1.97,2.88-3.61,5.19-5.14,7.28-.71,.96-1.69,1.46-2.81,1.46-.31,0-.63-.04-.96-.11-.9-.21-1.62-.71-2.05-1.41-.4-.66-.5-1.42-.31-2.22,.29-1.17,.7-2.51,1.44-3.62,1.35-2.01,2.87-3.86,4.31-5.56,.99-1.17,2.42-1.49,3.9-.89,1.41,.57,2.1,1.66,2.18,3.45v.07s-.02,.07-.02,.07Zm51.52-17.98c-1.24,1.88-3.43,2.22-5.84,.91-3.94-2.13-7.88-4.27-11.81-6.4l-8.13-4.41c-.28-.15-.56-.3-.87-.45l-.15-.08-2.2,4.06c1.29,.7,2.58,1.39,3.86,2.09,3.47,1.88,7.06,3.81,10.54,5.76,1.45,.81,2.96,1.84,4.75,3.23,1.79,1.39,2.22,3.57,1.05,5.32-1.18,1.75-3.27,2.16-5.31,1.07-4.3-2.3-8.59-4.62-12.88-6.93-2.07-1.11-4.13-2.23-6.19-3.34-.31-.16-.62-.32-.97-.49l-.2-.1-2.18,4.03s.07,.04,.11,.07c.3,.18,.59,.36,.89,.52,1.37,.74,2.74,1.47,4.11,2.2,3.26,1.75,6.64,3.55,9.93,5.39,1.33,.74,2.51,1.8,3.5,2.75,1.19,1.14,1.37,2.89,.43,4.24-.92,1.33-2.54,1.78-4.12,1.14-.79-.32-1.57-.69-2.32-1.05-.34-.16-.68-.33-1.02-.49l-16.49-7.66-1.95,4.21,15.98,7.45-.06,.3c-.31,1.62-1.2,2.97-2.44,3.71-.63,.38-1.33,.57-2.04,.57-.4,0-.8-.06-1.19-.18-3.45-1.08-6.82-2.32-10.09-3.5-1.3-.48-2.58-.94-3.84-1.39l-.28-.1,.02-.29c.05-.78,.14-1.5,.22-2.21,.17-1.47,.31-2.73,.14-3.97-.47-3.24-2.96-5.71-6.51-6.45-.51-.11-1.31-.69-1.38-1.28-.64-5.22-2.67-7.38-7.78-8.26-.14-.02-.27-.06-.4-.09l-.47-.12v-.32c.13-4.56-1.09-7.83-3.52-9.48-2.39-1.61-5.78-1.53-9.81,.22l-.29,.13-.19-.25c-1.84-2.55-4.34-3.97-7.04-4h-.09c-3.03,0-6.03,1.75-8.46,4.94l-.32,.43-1.4-2.04c-1.23-1.78-2.38-3.46-3.53-5.2-.27-.4-.27-1.15-.02-1.57,5.75-9.6,11.63-19.35,17.31-28.77l1.33-2.21c.06-.1,.14-.15,.2-.19,.02-.01,.03-.02,.05-.04l.17-.13,13.12,4.82-.23,.4c-.65,1.15-1.28,2.3-1.91,3.46-1.41,2.57-2.85,5.22-4.45,7.74-1.46,2.3-1.67,5.16-.56,7.49,1.14,2.39,3.49,3.9,6.61,4.26,4.14,.48,7.65-.76,10.46-3.66,1.17-1.21,2.32-2.49,3.44-3.72,.82-.9,1.67-1.84,2.52-2.74,.35-.38,.9-.87,1.55-1.09,.32-.11,.64-.22,.96-.33,1.48-.51,3.01-1.05,4.58-1.28,.83-.13,2.93-.33,4.32,.49l.43,.25c6.31,3.74,12.84,7.61,18.98,11.83,2.82,1.94,5.43,4.26,7.96,6.49,1.12,.99,2.27,2.02,3.43,2.99,2.24,1.89,4.47,3.79,6.71,5.68,1.98,1.68,2.48,3.84,1.29,5.65Zm9.88-16.52c-1.79,1.73-3.52,3.46-5.34,5.29-.7,.7-1.41,1.41-2.13,2.13l-.25,.25-.27-.23c-1.44-1.22-2.87-2.4-4.28-3.57-3.16-2.62-6.14-5.09-9.05-7.73-4.15-3.76-8.96-6.71-13.62-9.56-1.79-1.09-3.63-2.22-5.42-3.39-1.1-.71-2.24-1.41-3.34-2.09-.63-.38-1.25-.77-1.88-1.16-2.66-1.66-5.56-2.04-9.41-1.23-5.08,1.06-8.93,3.5-11.76,7.45-.73,1.02-1.64,1.91-2.51,2.77l-.2,.19c-2,1.97-4.43,2.65-7.22,2.05-1.13-.24-1.91-.79-2.27-1.58-.35-.78-.25-1.72,.31-2.71,2.95-5.29,5.62-10,8.14-14.39,.29-.5,.9-.97,1.53-1.17,7.76-2.44,15.74-4.02,23.72-4.68,1.1-.09,2.23,.22,3.32,.52,.27,.07,.54,.15,.8,.22l1.71,.44c4.46,1.14,9.06,2.32,13.56,3.59,2.02,.58,3.74,.49,5.41-.28,.8-.37,1.62-.66,2.49-.96,.4-.14,.8-.28,1.21-.43l.29-.11,.17,.26c.09,.13,.17,.25,.25,.38,.18,.27,.37,.54,.54,.83,1.38,2.29,2.76,4.59,4.15,6.89,3.81,6.33,7.75,12.88,11.65,19.3,.56,.93,.74,1.75-.27,2.72Z"/>
  <g>
    <path class="cls-11" d="M602.37,824.5c1.06-1.99,2.73-2.68,4.95-2.57,2.28,.12,4.58,.03,7.05,.03,0-.64,0-1.16,0-1.68,0-8.74,0-17.48,0-26.23,0-3.38,1.65-5.03,5.02-5.03,4.64,0,9.28,0,13.92,0,3.27,0,4.96,1.68,4.97,4.97,.02,8.69,0,17.39,0,26.08,0,.57,0,1.14,0,1.8h8.65v-1.87c0-22.12,0-44.25,0-66.37,0-3.84,1.56-5.39,5.43-5.39,4.44,0,8.89,0,13.33,0,3.57,0,5.2,1.63,5.2,5.19,0,22.17,0,44.34,0,66.52,0,.62,0,1.24,0,1.94h11.27v-1.92c0-15.04,0-30.08,0-45.13,0-4.14,1.52-5.67,5.64-5.67,4.4,0,8.79,0,13.19,0,3.43,0,5.11,1.71,5.11,5.15,0,15.24,0,30.47,0,45.71,0,.58,0,1.15,0,1.83h10.5v-1.88c0-17.29,0-34.58,0-51.86,0-2.26,.7-3.32,2.17-3.32,1.47,0,2.22,1.11,2.22,3.31,0,17.29,0,34.58,0,51.86v1.86h15v-76.13h-15c0,.47,0,.98,0,1.49,0,2.98,.01,5.96,0,8.94-.01,1.83-.84,2.8-2.3,2.75-1.38-.04-2.08-.95-2.09-2.77-.01-3.42-.02-6.84,0-10.26,.02-2.93,1.72-4.64,4.64-4.66,4.74-.02,9.47-.01,14.21,0,3.4,0,5.01,1.6,5.01,5.03,0,24.56,0,49.13,0,73.69,0,.62,0,1.24,0,2.03,2.51,0,4.84,0,7.18,0,3.42,0,4.69,1.27,4.69,4.68,0,2.44,.02,4.88,0,7.33-.02,2.84-1.43,4.27-4.22,4.27-23.39,0-46.79,0-70.18,0-1.78,0-2.84-.9-2.78-2.29,.05-1.35,1.03-2.1,2.8-2.1,22.71,0,45.42,0,68.13,0h1.79v-7.39h-141.1c0,1.22,0,2.42,0,3.62s0,2.42,0,3.77h1.87c19.05,0,38.09,0,57.14,0,.49,0,.98-.03,1.46,.02,1.17,.12,1.89,.78,1.99,1.97,.11,1.27-.57,2.04-1.76,2.33-.51,.12-1.07,.08-1.6,.08-19.53,0-39.07-.02-58.6,.03-2.22,0-3.88-.62-4.89-2.65v-11.14Zm64.04-2.62v-69.15h-14.96v69.15h14.96Zm35.22,0v-48.21h-14.93v48.21h14.93Zm-67.82-28.37h-14.96v28.33h14.96v-28.33Z"/>
    <path class="cls-11" d="M602.37,746.55c.69-3.49,3.03-5.53,5.95-7.32,16.34-10.01,32.62-20.12,48.92-30.2,3.9-2.41,7.18-2.24,10.78,.63,7.06,5.62,14.11,11.26,21.17,16.89,.64,.51,1.29,1.03,2.03,1.61,10.52-8.53,21.01-17.02,31.58-25.6-.76-.94-1.47-1.79-2.14-2.67-2.41-3.19-.82-7.22,3.13-7.87,7.26-1.19,14.54-2.33,21.8-3.49,.32-.05,.63-.19,.95-.29,.68,0,1.37,0,2.05,0,.21,.11,.41,.23,.63,.32,2.71,1.16,3.82,3.67,2.76,6.49-2.71,7.16-5.44,14.31-8.22,21.44-1.54,3.94-5.79,4.61-8.52,1.4-.66-.78-1.3-1.58-2.05-2.5-2.84,2.3-5.63,4.55-8.43,6.82-9.33,7.56-18.66,15.13-27.99,22.68-3.52,2.84-7.43,2.89-10.98,.07-7.68-6.1-15.35-12.22-22.99-18.39-.87-.7-1.44-.73-2.38-.14-6.61,4.15-13.26,8.24-19.9,12.34-.37,.23-.73,.5-1.13,.67-1.13,.47-2.12,.26-2.82-.78-.65-.96-.39-2.26,.63-2.96,1.16-.8,2.39-1.51,3.6-2.25,6.43-3.98,12.88-7.93,19.28-11.95,1.38-.87,2.47-.74,3.7,.25,7.95,6.39,15.94,12.74,23.9,19.12,2.93,2.34,4.16,2.37,7.06,.02,12.21-9.89,24.43-19.79,36.64-29.69,1.93-1.57,2.85-1.49,4.41,.4,1.08,1.31,2.15,2.63,3.5,4.29,3-7.82,5.89-15.32,8.95-23.29-8.3,1.31-16.24,2.57-24.4,3.86,.26,.5,.38,.84,.6,1.11,.84,1.08,1.72,2.13,2.58,3.19,1.57,1.93,1.49,2.85-.41,4.39-5.95,4.83-11.91,9.65-17.86,14.48-5.12,4.15-10.24,8.3-15.36,12.45-1.79,1.45-2.46,1.47-4.22,.07-7.75-6.18-15.49-12.36-23.24-18.54-2.95-2.36-3.8-2.41-7.04-.4-16.43,10.16-32.86,20.33-49.3,30.47-1.54,.95-2.78,2.05-2.71,4.01,.11,3.02,3.31,4.64,6.03,3,4.26-2.57,8.47-5.22,12.71-7.84,.95-.59,1.89-1.21,2.87-1.76,1.2-.67,2.43-.38,3.07,.67,.65,1.06,.4,2.3-.78,3.04-5.38,3.36-10.72,6.79-16.21,9.96-4.55,2.62-10.25,.11-11.77-4.92-.12-.41-.27-.81-.41-1.21,0-.68,0-1.37,0-2.05Z"/>
  </g>
  <g>
    <path class="cls-11" d="M715.58,147.09c0-2.16-.82-3.06-2.96-3.26-13.37-1.28-26.43-4.07-39.07-8.61-5.28-1.9-10.4-4.25-15.59-6.4h-1.55c-.1,.08-.18,.19-.29,.23-17.2,7.97-35.23,12.91-54.11,14.75-2.43,.23-3.22,1.03-3.22,3.42,0,11.32,0,22.64,0,33.96,0,6.52,.6,13,2.25,19.31,7.7,29.39,25.75,49.48,54.27,60.11,1.29,.48,2.43,.47,3.73,.01,33.92-11.93,56.3-43.23,56.51-79.17,.07-11.45,.01-22.9,.01-34.35Zm-5.17,33.84c-.05,31.7-18.23,59.73-47.24,72.47-7.33,3.22-4.57,3.3-11.88,0-23.63-10.63-38.57-28.73-45.14-53.74-1.54-5.84-2.16-11.84-2.17-17.89-.02-10.63,0-21.26,0-31.9v-.92c4.4-.69,8.65-1.28,12.87-2.04,13.47-2.42,26.45-6.45,38.93-12.07,1.05-.47,1.86-.44,2.87,.02,14.24,6.41,29.11,10.68,44.53,13.02,2.33,.36,4.68,.62,7.22,.95v1.36c0,10.24,.01,20.49,0,30.73Z"/>
    <path class="cls-11" d="M687.14,184.42c-.03-4.73-3.53-8.77-8.17-9.64-1.08-.2-2.19-.23-3.42-.36,.42-5.44-.74-10.4-4.35-14.57-3.63-4.2-8.26-6.38-13.81-6.47-4.67-.07-8.79,1.48-12.29,4.56-4.96,4.36-6.75,10-6.24,16.62-.71,0-1.18,0-1.66,0-5.48,.13-9.92,4.52-9.95,10.01-.06,10.54-.05,21.09,0,31.63,.03,5.49,4.45,9.97,9.94,10,13.34,.07,26.68,.07,40.02,0,5.44-.02,9.89-4.47,9.92-9.88,.07-10.63,.06-21.26,0-31.89Zm-5.14,31c0,3.61-1.99,5.63-5.56,5.63-12.83,0-25.65,0-38.48,0-3.57,0-5.56-2.02-5.56-5.63,0-10.03,0-20.06,0-30.09,0-3.65,2-5.63,5.69-5.63h6.31v-7.91c0-7.08,5.74-12.81,12.81-12.81s12.82,5.74,12.82,12.81v7.91h6.28c3.69,0,5.69,1.98,5.69,5.63,0,10.03,0,20.06,0,30.09Z"/>
    <path class="cls-11" d="M662.2,200.94c-.69,.68-.9,1.35-.87,2.25,.05,1.46,.04,2.93,0,4.39-.06,2.28-1.79,4.02-4,4.1-2.14,.07-4.03-1.65-4.2-3.9-.07-.94-.01-1.89-.01-2.84h-.02c0-.39-.03-.78,0-1.16,.12-1.25-.22-2.19-1.15-3.19-2.6-2.8-2.22-7.15,.65-9.71,2.8-2.49,7.09-2.31,9.67,.41,2.6,2.73,2.6,7.01-.08,9.66Z"/>
  </g>
  <g>
    <path class="cls-11" d="M849.88,416.32c2.67,1.47,5.4,2.85,8.01,4.42,8.52,5.12,17,10.31,25.5,15.47,4.86,2.95,4.95,9.12,.12,12.08-10.27,6.29-20.56,12.54-30.88,18.75-5.12,3.08-10.96-.27-11.01-6.26-.02-2.31,0-4.62,0-7.08-.55,0-1,0-1.45,0-9.95,0-19.9,0-29.85,0-5.29,0-9.51-2.72-11.34-7.24-2.94-7.26,2.46-15.48,10.34-15.56,10.31-.1,20.61-.03,30.92-.04,.42,0,.84,0,1.38,0,0-2.31-.02-4.51,.01-6.71,.01-.85,.02-1.73,.23-2.55,.62-2.41,2.14-4.05,4.49-4.9,.33-.12,.64-.26,.97-.39,.86,0,1.71,0,2.57,0Zm-23.45,32.78c5.64,0,11.27,0,16.91,0,2.01,0,2.86,.86,2.87,2.87,0,2.96,0,5.92,0,8.88,0,2.52,1.86,3.6,4.03,2.3,10.3-6.24,20.59-12.49,30.88-18.76,1.85-1.13,1.87-3.08,.04-4.19-10.31-6.29-20.64-12.56-30.96-18.83-2.1-1.27-3.97-.19-3.98,2.27-.01,2.89,0,5.78,0,8.67,0,2.37-.71,3.09-3.04,3.09-10.77,0-21.54,0-32.31,0-.46,0-.93-.01-1.39,.02-4.23,.25-7.28,3.88-6.66,7.89,.5,3.26,3.4,5.75,6.84,5.77,5.6,.04,11.2,0,16.8,.01Z"/>
    <path class="cls-11" d="M777.54,499.14c.58-2.99,2.61-4.68,5.1-6.17,9.78-5.85,19.5-11.8,29.24-17.73,2.45-1.49,4.97-1.73,7.5-.32,2.54,1.41,3.65,3.7,3.66,6.56,0,2.28,0,4.56,0,7.03,.5,0,.94,0,1.39,0,9.95,0,19.9-.01,29.84,0,5.7,0,10.13,3.32,11.51,8.55,1.87,7.07-3.4,14.19-10.72,14.25-10.2,.09-20.39,.03-30.59,.03-.42,0-.84,0-1.37,0-.02,.45-.06,.82-.06,1.2-.02,2.28,.11,4.57-.08,6.84-.45,5.37-6.03,8.2-10.67,5.45-4.59-2.73-9.14-5.54-13.71-8.31-5.33-3.23-10.62-6.53-16-9.67-2.51-1.47-4.52-3.2-5.05-6.21v-1.5Zm60.27,7.66c5.56,0,11.13,.03,16.69,0,4.63-.03,7.83-3.86,6.96-8.23-.65-3.27-3.39-5.45-6.95-5.45-10.95-.01-21.89,0-32.84,0-2.47,0-3.21-.74-3.22-3.17,0-2.85-.02-5.71,0-8.56,0-1.06-.14-2.02-1.17-2.56-1.01-.53-1.99-.32-2.93,.26-10.26,6.24-20.52,12.47-30.77,18.72-1.9,1.16-1.92,3.09-.02,4.24,10.28,6.26,20.58,12.51,30.86,18.77,.92,.56,1.83,.79,2.81,.23,.99-.57,1.24-1.47,1.23-2.54-.03-2.92-.01-5.85,0-8.77,0-2.14,.77-2.92,2.88-2.92,5.49,0,10.98,0,16.47,0Z"/>
  </g>
  <polygon class="cls-5" points="819.1 845.09 819.1 681.43 677.37 599.6 535.64 681.43 535.64 845.09 677.37 926.92 819.1 845.09"/>
  <polygon class="cls-9" points="489.06 858.31 489.06 694.65 347.33 612.82 205.6 694.65 205.6 858.31 347.33 940.14 489.06 858.31"/>
  <polygon class="cls-6" points="974.34 555.62 974.34 391.96 832.61 310.13 690.88 391.96 690.88 555.62 832.61 637.45 974.34 555.62"/>
  <polygon class="cls-4" points="313.96 576.76 313.96 413.11 172.23 331.28 30.5 413.11 30.5 576.76 172.23 658.59 313.96 576.76"/>
  <polygon class="cls-7" points="798.94 276.72 798.94 113.06 657.21 31.23 515.48 113.06 515.48 276.72 657.21 358.54 798.94 276.72"/>
  <polygon class="cls-8" points="468.9 287.29 468.9 123.63 327.17 41.8 185.44 123.63 185.44 287.29 327.17 369.12 468.9 287.29"/>
</svg>