<svg xmlns="http://www.w3.org/2000/svg" width="68" height="73" viewBox="0 0 68 73">
    <g fill="none" fill-rule="evenodd">
        <g fill-rule="nonzero">
            <g>
                <g>
                    <g>
                        <path fill="#FFF" d="M33.324 62.003l-.81.608-.606.48c-.128.099-.196.255-.18.415v1.66c-.004.144-.115.264-.26.279-.066.007-.131.007-.196 0h-1.655c-.057.007-.115.007-.173 0V61.98c-.34.222-.636.43-.91.63l-.672.537c-.085.061-.131.161-.123.265v1.602c.012.108-.023.216-.096.297-.073.08-.178.126-.287.126h-1.98v-3.442l-.845.622-.593.473c-.132.095-.201.254-.18.415v1.474c0 .357-.109.472-.449.472h-2.268c-.053.007-.107.007-.16 0v-5.567c-.548.415-1.09.816-1.632 1.195-.094.08-.138.202-.116.322v6.368h4.335c.243-.007.485-.036.723-.086.438-.073.797-.382.932-.801v-.186 1.009s.123.05.137.05H27.883c.549 0 1.035-.35 1.207-.866l.087-.079v.451c-.023.161-.008.325.043.48h2.377c.17-.004.34-.026.506-.065.517-.101.92-.503 1.019-1.016.117-.369.185-.751.202-1.138V62.16c.007-.052.007-.105 0-.157zM59.04 62.003l-.896.608-.672.494c-.145.086-.224.25-.203.415v1.488c0 .465-.094.616-.542.616h-1.401l-.044-.222c-.055-.429-.284-.817-.636-1.074-.31-.236-.614-.5-.924-.75l-.723-.573.542-.401c.86-.58 1.72-1.145 2.58-1.753-.06-.006-.118-.018-.174-.036h-2.023c-.142.006-.279.056-.39.143l-2.414 1.653-.36.265-.174.15c.044.047.093.09.144.129l2.009 1.553c.073.055.143.115.21.179.102.076.146.207.108.329-.109.3-.542.315-.578.315-1.72 0-4.596.078-6.308.078h-.08c-.157.026-.319-.018-.44-.121-.12-.105-.189-.257-.188-.415v-3.12c-.361.229-.723.443-.997.658l-.81.58c-.087.074-.13.187-.115.3v2.147c.006.26.037.519.094.773.094.593.515 1.085 1.09 1.273.304.097.622.14.94.13h6.85c.289 0 .577-.03.86-.087.709-.13 1.324-.561 1.683-1.18 0-.065 0-.136.044-.2v1.43h1.235c.414.025.83.025 1.243 0 .749-.02 1.357-.604 1.402-1.345.066-.373.1-.751.1-1.13v-3.049c-.03-.08-.045-.165-.042-.25zM11.293 60.822c-.172 0-.338.061-.47.172l-2.167 1.61-.231.193-.253.215.188.179 1.785 1.51c.085.067.163.144.23.229.078.091.105.214.073.329-.036.113-.12.205-.231.25H7.99c-.057 0-.108-.093-.108-.107v-5.546c-.42.093-.31.15-.397.208-.42.315-.896.63-1.323.937-.14.085-.222.238-.216.4v6.376h4.11c.22.001.438-.023.651-.071.752-.173 1.364-.712 1.626-1.431.29-.681.094-1.47-.484-1.94-.137-.107-.253-.221-.376-.329l-1.091-.966.491-.393.253-.179.723-.544c.238-.172.477-.343.722-.536.258-.156.5-.335.723-.537h-2.002v-.029zM61.995 70.726l1.626 1.237 1.661-1.202c-.476-.379-1.12-.858-1.625-1.252l-1.662 1.217zM66.93 62.253v-.193l-.101.043-.773.537-.774.544c-.083.059-.13.156-.122.257v1.567c0 .286-.109.422-.42.451H63v-5.603l-.144.079c-.542.35-1.034.716-1.568 1.073-.127.07-.203.207-.195.35v6.44l3.027.044h.542c.222.007.445-.007.665-.043.77.042 1.437-.521 1.517-1.28.066-.333.1-.671.101-1.01v-2.862c-.007-.143-.014-.28-.014-.394zM34.979 67.777h4.516c.243 0 .486-.029.722-.085.44-.072.807-.377.954-.795.058-.163.101-.33.13-.5.08-.65.108-1.306.087-1.961v-2.397l-.174.1-.628.472c-.152.129-.311.243-.463.358-.288.173-.442.5-.39.83.036.415 0 .837 0 1.26 0 .264-.094.371-.332.393h-2.573c-.069.014-.14.014-.21 0v-5.596c0 .05-.093.065-.122.086-.477.35-.94.716-1.445 1.073-.107.078-.165.206-.152.337v6.204c.038.07.065.144.08.221zM3.779 64.35l-1.93-1.739-.982-.816-.78-.658v1.61c-.023.21.07.416.245.537l1.734 1.481c.085.069.162.146.232.229.051.062.072.143.058.222-.018.08-.07.149-.145.186-.101.066-.214.112-.332.136-.26 0-1.879-.065-1.879-.05v2.29c.058.006.116.006.173 0H2.03c.202-.003.403-.027.6-.072.744-.151 1.359-.666 1.633-1.367.291-.697.096-1.5-.484-1.989zM17.515 61.989l-.81.622-.664.544c-.093.08-.14.201-.123.322v1.431c.014.09.014.182 0 .272-.044.2-.109.35-.304.372h-1.669v2.276H16.141c.723-.065 1.179-.33 1.352-1.317.058-.343.087-.69.087-1.038v-3.22c-.005-.08-.017-.158-.036-.236l-.03-.028zM39.979 70.661l-1.3-1.116c-.5.372-.94.773-1.446 1.109l-1.3-1.123c-.477.415-.976.78-1.446 1.209l1.402 1.216 1.438-1.116 1.293 1.116 1.395-1.116 1.308 1.116.925-.715.585-.444-.571-.458-.896-.765-1.387 1.087zM57.508 58.733L59.068 59.856 60.694 58.776 59.105 57.645z" transform="translate(-1237 -15) translate(1237 15) translate(0 .5) translate(.09)"/>
                        <path fill="#FFF" d="M11.843 59.792h-1.091c-.108-.008-.216.007-.318.043-.223.103-.428.24-.607.408-.542.386-1.084.78-1.583 1.173-.072.05-.166.136-.173.2v.952l3.772-2.776z" transform="translate(-1237 -15) translate(1237 15) translate(0 .5) translate(.09)"/>
                        <g>
                            <g fill="#F1C40F">
                                <g>
                                    <path d="M29.519 1.045v.15H.263v-.057c.007.071.007.143 0 .214H29.46v.15H.3v-.07c.246 1.68.723 4.85 1.344 8.75.93-.19 1.675-.881 1.93-1.789h-.131v-.522c-.515-.408-.836-1.009-.889-1.66-.094-.794-.722-1.996-.722-2.268 0-.272.556.186.96.522.413.427.794.88 1.142 1.36.35-.48.733-.935 1.15-1.36.411-.336.967-.823.967-.522 0 .3-.614 1.51-.722 2.268-.048.647-.361 1.247-.867 1.66v.53H4.3c.27 1.043 1.204 1.784 2.291 1.817h.152c1.077-.057 1.996-.788 2.283-1.817h-.18v-.53c-.503-.415-.815-1.014-.867-1.66-.094-.794-.723-1.996-.723-2.268 0-.272.556.186.976.522.411.427.793.88 1.141 1.36.349-.48.73-.933 1.142-1.36.412-.336.975-.823.975-.522 0 .3-.643 1.51-.722 2.268-.08.759-.477 1.524-.918 1.66v.53c0 .15.723 1.86 2.211 1.817h.296c1.518 0 2.168-1.667 2.168-1.817h.824c.298 1.025 1.215 1.753 2.29 1.817h.253c1.09-.022 2.027-.768 2.283-1.817h.78c.283 1.035 1.21 1.77 2.291 1.817h.152c1.081-.043 2.008-.78 2.283-1.817h.78c.228.85.88 1.525 1.727 1.789L29.678.172H.089c.015.3.056.6.123.894l29.307-.021zM5.675 3.907l-.903.766-.239.214c-.033-.29-.28-.508-.574-.508-.295 0-.542.219-.575.508l-.224-.2-.896-.809c-.058-.073-.086-.165-.08-.257.02-.088.078-.162.16-.2.086-.044.188-.044.274 0 .28.284.522.601.723.944l.101-.072c-.231-.324-.427-.672-.585-1.037-.012-.142.074-.274.21-.322.132-.056.286-.01.368.107.142.367.24.749.296 1.138h.058c-.116-.39-.173-.796-.166-1.202 0-.25.195-.244.303-.387h.109c.108.143.296.136.303.387-.001.382-.057.763-.166 1.13h.08c.051-.387.15-.767.296-1.13.08-.124.239-.173.375-.115.133.054.213.189.195.33-.161.365-.365.71-.607 1.03h.058c.202-.34.445-.655.723-.938.084-.043.183-.043.267 0 .086.037.15.111.174.2.043.144.001.3-.109.401l.05.022zm5.491 0l-.874.766-.246.214c0-.312-.255-.565-.57-.565-.316 0-.571.253-.571.565l-.174-.2-.918-.809c-.055-.074-.083-.165-.079-.257.027-.09.093-.164.18-.2.084-.044.184-.044.268 0 .276.286.519.603.723.944l.093-.072c-.236-.32-.433-.67-.585-1.037-.012-.137.068-.265.197-.315.129-.05.276-.009.36.1.144.367.245.749.303 1.138h.08c-.123-.39-.181-.795-.174-1.202 0-.25.195-.244.31-.387h.08c.116.143.297.136.311.387 0 .383-.058.764-.173 1.13h.079c.059-.386.158-.765.296-1.13.084-.13.25-.178.39-.115.137.05.218.188.196.33-.15.363-.342.709-.571 1.03h.058c.199-.342.442-.657.722-.938.083-.048.183-.054.271-.018.088.037.154.113.177.204.031.157-.038.316-.173.401l.014.036zm2.471-.45c.278.282.52.596.723.937l.086-.1c-.236-.32-.433-.665-.585-1.031-.022-.142.06-.28.195-.33.135-.05.288-.003.369.115.138.366.237.745.296 1.13h.08c-.118-.394-.176-.804-.174-1.216 0-.25.195-.236.31-.386h.102c.116.15.296.136.31.386 0 .386-.058.77-.173 1.138h.08c.057-.388.157-.77.296-1.138.088-.108.237-.149.368-.1.135.052.215.188.196.33-.149.364-.34.71-.571 1.03h.058c.2-.34.443-.656.722-.938.087-.039.187-.039.275 0 .086.04.15.117.173.208.007.093-.021.184-.08.258l-.888.78-.239.214c0-.312-.255-.565-.57-.565-.316 0-.571.253-.571.565l-.268-.057-.867-.816c-.077-.078-.116-.185-.108-.293.026-.083.086-.15.166-.186.079-.044.174-.044.253 0l.036.064zm2.797 2.783c-.052.635-.36 1.223-.853 1.631v.53h-1.07v-.53c-.455-.129-.809-.866-.91-1.66-.101-.794-.722-1.996-.722-2.268 0-.272.563.186.96.522.417.425.8.88 1.15 1.36.348-.48.73-.933 1.141-1.36.412-.336.975-.823.975-.522 0 .3-.585 1.48-.679 2.26l.008.037zm2.702-2.784c.28.28.523.596.722.938l.08-.1c-.232-.321-.426-.667-.578-1.031-.028-.143.051-.284.188-.337.136-.053.291-.001.368.122.145.364.245.743.296 1.13h.08c-.117-.39-.173-.795-.166-1.201 0-.25.195-.236.303-.387h.109c.115.15.296.136.303.387 0 .385-.057.768-.166 1.137h.08c.054-.389.153-.77.296-1.137.082-.116.233-.163.368-.115.13.058.208.19.195.33-.15.364-.345.71-.578 1.03h.094c.204-.339.446-.654.723-.938.084-.039.182-.039.267 0 .087.042.152.117.18.208.002.093-.029.184-.086.258l-.91.937-.239.215c-.033-.29-.28-.509-.574-.509-.295 0-.542.219-.575.509l-.231-.215-.925-.809c-.058-.073-.086-.165-.08-.257.023-.094.087-.173.174-.215.087-.042.188-.042.275 0l.007.05zm2.76 2.784c-.066.639-.386 1.225-.889 1.631v.53h-1.07v-.53c-.527-.402-.862-1.003-.924-1.66-.094-.794-.723-1.996-.723-2.268 0-.272.564.186.961.522.419.422.805.874 1.157 1.352.348-.478.73-.933 1.141-1.36.412-.335.976-.822.976-.521 0 .3-.542 1.488-.629 2.268v.036zm2.702-2.812c.277.286.52.603.723.944l.094-.079c-.237-.32-.433-.67-.585-1.037-.013-.137.067-.265.196-.315.13-.05.276-.009.36.1.144.367.246.749.303 1.138h.08c-.115-.369-.174-.752-.174-1.138 0-.082.03-.161.087-.222.06-.059.14-.092.224-.093h.101c.084 0 .165.034.224.093.057.06.088.14.087.222 0 .386-.058.77-.173 1.138h.08c.058-.389.157-.77.295-1.138.086-.126.252-.172.39-.107.135.046.218.182.196.322-.157.367-.356.715-.593 1.037h.058c.201-.342.444-.66.722-.944.088-.04.188-.04.275 0 .086.04.15.116.173.207.007.093-.021.185-.08.258l-.888.794-.238.215c-.033-.29-.28-.509-.575-.509-.294 0-.541.22-.574.509l-.26-.136-.896-.809c-.058-.073-.087-.165-.08-.257.027-.09.094-.164.181-.2.084-.044.184-.044.267 0v.007zm2.746 2.776c-.05.653-.372 1.257-.889 1.667v.53h-1.07v-.53c-.506-.414-.823-1.012-.88-1.66-.087-.794-.723-1.996-.723-2.268 0-.272.556.186.968.522.41.425.786.88 1.127 1.36.349-.48.73-.933 1.142-1.36.412-.336.96-.823.96-.522 0 .3-.534 1.488-.642 2.268l.007-.007z" transform="translate(-1237 -15) translate(1237 15) translate(0 .5) translate(.09) translate(8.757) translate(.546)"/>
                                    <path d="M27.67 11.091h.317l.08-.53c-1.067-.19-1.918-.988-2.168-2.032-.256 1.258-1.378 2.159-2.674 2.147h-.122c-1.3.018-2.427-.885-2.681-2.147-.253 1.257-1.372 2.158-2.666 2.147h-.145c-1.3.021-2.429-.883-2.68-2.147-.256 1.255-1.374 2.155-2.667 2.147h-.108c-1.298.017-2.422-.886-2.673-2.147-.257 1.258-1.378 2.159-2.674 2.147H6.65c-1.297.017-2.422-.886-2.673-2.147-.23 1.123-1.146 1.982-2.29 2.147l.064.465h25.882l.036-.05zM27.908 11.492L1.838 11.492 2.048 12.837 27.691 12.837 27.886 11.492z" transform="translate(-1237 -15) translate(1237 15) translate(0 .5) translate(.09) translate(8.757) translate(.546)"/>
                                </g>
                                <path d="M40.896 28.186c-.561-.796-1.304-1.45-2.167-1.91-1.373-.716-1.445-.194-2.168.65-.448.444-.657 0-.968-.236-.31-.236-.91-.93-2.305.344 0 0 .802 1.653 1.792 1.574.541.042 1.055-.24 1.308-.716.23-.272.823-1.051 1.076-1.13.624-.252 1.34-.019 1.691.55 0 0 .636-.221 1.741.874zM41.402 28.901c-.51-.141-1.058-.066-1.51.208-.45.274-.765.72-.874 1.23-.304 1.002-.788 1.603-1.763 1.432-.629-.194-.383-.916 0-1.13.188-.093.391-.153.6-.18 0 0 1.466-2.554 3.547-1.56z" transform="translate(-1237 -15) translate(1237 15) translate(0 .5) translate(.09) translate(8.757)"/>
                                <path d="M39.813 29.46s1.445-.272 2.066.386c.387.436.625.982.68 1.56.11-.384.243-.762.397-1.13.108-.158.253-.645 0-.774-.47-.179-.629.13-.89 0-.683-.43-1.553-.447-2.253-.043z" transform="translate(-1237 -15) translate(1237 15) translate(0 .5) translate(.09) translate(8.757)"/>
                                <path d="M42.211 31.52s-.375-2.268-2.037-1.731c-.672.236-.687.63-.947 1.288-.182.419-.514.758-.932.951 1.329-.04 2.65-.21 3.945-.508h-.029zM41.496 33.31h-.361s-.52-1.01-2.999-.123c-.412.115-.57 1.961 1.756 1.575.448-.115 1.077-1.13 1.077-1.13l.36.092-.772.98s.137 1.475-.932 1.61c-1.07.136-1.077-.715-1.077-.715l.13-.122s-2.29-1.395-.997-2.497c1.293-1.102 3.1-.35 4.834-1.252l-1.019 1.581z" transform="translate(-1237 -15) translate(1237 15) translate(0 .5) translate(.09) translate(8.757)"/>
                                <path d="M40.586 33.366s0 .523-.434.601c0 0 0-.715-1.9-.565 0 0 .6-.687 2.334-.036zM38.15 28.043s-.252.665.16.715c.173-.13.24-.358.162-.56-.076-.2-.278-.328-.495-.313-.196-.015-.389.055-.528.193s-.21.329-.194.523c.044.202.197.364.397.422.199.058.414.006.564-.136 0 0-.831-.336-.065-.844z" transform="translate(-1237 -15) translate(1237 15) translate(0 .5) translate(.09) translate(8.757)"/>
                                <path d="M38.91 27.835c-.427-1.13-1.894-.715-2.291.522-.398 1.238.433 2.412 1.676 1.138.578-.515 1.489-1.395 2.587-1.002-.463-.58-1.227-.837-1.951-.658h-.022zm-.723 1.274c-.824.801-1.3.329-1.33.114-.062-.408.057-.822.325-1.137.39-.394.969-.895 1.59.128.352-.208.79-.208 1.142 0 0 0-.723-.171-1.727.895z" transform="translate(-1237 -15) translate(1237 15) translate(0 .5) translate(.09) translate(8.757)"/>
                                <path d="M38.563 48.787l-1.395-11.578c-.575.001-1.144-.108-1.676-.322 0 0 .549-.143.578-.601 0 0-1.561.136-1.836-.644.185.036.376-.006.528-.115.151-.107.255-.269.289-.45-.37.073-.755-.021-1.048-.258-.292-.237-.46-.592-.455-.966.264.155.605.087.788-.157-.556-.064-1.012-.464-1.142-1.002.514-.048.957-.38 1.142-.859 0 0-1.727.336-.89-1.61.23-.484.53-.932.89-1.33-.852-.312-1.425-1.106-1.446-2.004.284-.382.65-.697 1.07-.923.496-.323 1.137-.323 1.633 0 .47.393.722.858 1.09.293.191-.322.436-.61.723-.852-1.859-.899-4.07-.689-5.722.544-3.18 2.054-5.376 6.376-6.012 10.147-.636 3.77 2.948 5.009 4.581 5.724 1.633.716 4.335 2.405 2.833 5.818 1.867.161 3.71.533 5.491 1.109l-.014.036zM28.902 37.78c-.65-2.975-.025-6.084 1.727-8.586 0 0-2.29 5.252-.874 8.479.72 1.823 2.165 3.274 3.995 4.014 0 0-4.017-.858-4.848-3.907z" transform="translate(-1237 -15) translate(1237 15) translate(0 .5) translate(.09) translate(8.757)"/>
                                <path d="M42.985 51.17h-.405c-1.237-.696-2.659-1.001-4.075-.874 0 0-.593-.873-4.747-1.08-1.687.02-3.37-.155-5.015-.522 0 0-2.088-.873-3.035.465-.946 1.338 1.445 2.483 2.29 2.619l10.55.114s-.087-.444-2.572-.715c-2.486-.272-5.636-.33-6.46-.308-.824.021-1.77.243-2.167-.515-.398-.759-.174-1.06.6-1.08.475-.01.946.096 1.372.307 1.146-.007 2.292.05 3.432.172 1.617.1 3.216.393 4.762.873.903.436 2.016 0 3.432.486.727.228 1.394.615 1.95 1.13h.81s-.296-.815 0-.95c.296-.137.795.292 1.055.507l.116-.222s1.018.508 1.257 1.13H27.117s-3.034-1.13-2.81-3.126c.224-1.997 2.615-2.268 3.713-2.018 1.099.25 1.908.794 2.457.794.55 0 6.308.3 8.266 1.303.804.11 1.619.132 2.428.064l.253-.086c.187-.279.488-.462.824-.5.333-.03.66.1.881.35 0 0 .78-.215 1.149.057.323.377.584.802.773 1.26.403-.035.795.141 1.033.465.298.47.631.917.997 1.338h-.722c-.428-.548-.884-1.073-1.366-1.575-.448-.407-.722-.93-1.055-.987-.332-.057.39.916.39.916l-1.293-1.13s-.426-.38-.592.142c-.167.523 1.156 1.067.542 1.195zM35.838 28.901c-.194 1.29-.08 2.605.333 3.843.358 1.221 1.122 2.288 2.168 3.027-.324.664-1.085 1-1.8.794.18-.114.312-.286.376-.487.152-.58.094-.565-.354-.45-.448.114-1.236.415-1.445-.093 0 0 .788 0 .889-1.131 0 0-1.258.465-1.821-.136 0 0 1.445-.286 1.25-1.138 0 0-1.28.208-1.445-.329 0 0 1.019-.715.896-1.474 0 0-1.091.1-1.15-.057-.16-.748.162-1.516.81-1.932.389-.248.833-.398 1.293-.437zM.513 53.073H48.504999999999995V54.569H.513z" transform="translate(-1237 -15) translate(1237 15) translate(0 .5) translate(.09) translate(8.757)"/>
                                <path d="M29.155 42.168c-4.762-1.84-4.581-5.238-4.054-8.716l3.078-20.264H2.66c1.95 12.164 4.776 28.693 6.07 30.69 4.335 8.937 12.088 8.587 12.088 8.587h5.108s-3.902-1.575-2.84-4.036c1.063-2.462 3.15-2.261 4.805-1.918 1.655.344 3.526 1.531 4.581-.336 1.055-1.868-3.316-4.007-3.316-4.007zM20.6 20.458s1.149.873 1.011 1.574c-.137.701-.62.716-1.148.909-.759.286-1.454.716-2.045 1.266-.087.079-.275-.522-1.15-.794l2.443-2.92s.55-.457.889-.035zm-3.013 5.882l-1.373-.065s-.47-.243-.57-1.43c-.102-1.189-.138-1.546 1.394-1.081 1.532.465.932 1.137.722 1.545-.144.332-.203.693-.173 1.052v-.021zm3.44 17.309c-1.352.243-1.215-.2-1.309-.508-.128-.385.043-.806.405-.995.734-.137 1.474-.235 2.218-.293.101.43.195.901.29 1.431-.524.167-1.06.289-1.605.365zm1.647-.079c.065.487.137 1.01.18 1.567l-1.517.315c-1.54.308-1.243-.236-1.366-.644-.055-.175-.031-.366.065-.522.095-.16.257-.267.441-.294.318-.078 1.727-.329 2.168-.422h.029zm-2.168-1.717c-.903.143-.997 0-1.149-.365-.152-.365-.354-.945.116-1.066.47-.122 1.914-.344 2.384-.408.173.488.32.985.44 1.488-.288.043-1.068.215-1.813.344l.022.007zm-.593-1.782c-.722.136-1.141.136-1.524-.358-.383-.493-.239-.787.195-.901.434-.115 2.016-.48 2.384-.558.262.46.49.939.687 1.43-.347.094-1.149.294-1.727.401l-.015-.014zm-1.495-1.488c-.463.058-.916-.165-1.15-.566-.1-.193-.295-.644.268-.794.564-.15 2.023-.386 2.493-.465.123.172.239.33.332.48l.094.143c.138.207.282.443.441.715-.419.072-1.93.4-2.478.465v.022zm-.585-1.574c-.62.234-1.322.05-1.742-.458-.332-.573.116-.78.448-.845l2.29-.436c.376.436.723.83.99 1.195l-1.986.544zm0-1.875c-.723.186-2.29.715-2.782.172-.492-.544-.268-.873.123-.93.39-.058 1.74-.416 2.29-.58l1.033 1.137c-.236.081-.478.148-.722.2h.058zm-1.836-1.288c-.397.1-1.784.715-2.29 0-.506-.716-.239-.773.173-.923.412-.15 1.705-.473 2.29-.608l.254.25.867.909c-.42.1-1.04.293-1.352.372h.058zM13.83 32.6c-.976.186-1.15 0-1.445-.422-.297-.423-.34-.716.108-.83l2.124-.487c.362.424.746.83 1.149 1.216-.633.204-1.277.37-1.93.501l-.006.022zm-.21-1.832c-1.286.286-1.814.444-2.168-.136-.52-.894.239-.837.239-.837l2.168-.272c.16.406.38.787.65 1.13l-.889.115zm.108-1.539l-2.232.18c-.723 0-.99-.716-1.005-1.697-.014-.98.065-1.137.672-.758.753.545 1.612.93 2.522 1.13v.265c-.047.305-.032.617.043.916v-.036zm0-1.323c-.946-.399-1.835-.918-2.644-1.546-.318-.293-.383-.544.094-1.13.477-.587.997-.938 1.062-.795.216.395.457.775.723 1.138.378.512.84.96 1.365 1.324-.306.286-.515.658-.6 1.066v-.057zm-.36-2.52c-.644-.95-.608-1.301-.37-1.495.541-.4 1.206-.6 1.88-.565.823.093.339.587.39 1.345.079.564.281 1.103.592 1.582h-.369c-.349.045-.684.165-.982.35-.44-.337-.83-.734-1.156-1.18l.014-.036zm5.26-6.174c.968.315 1.242.586.88 1.13l-2.456 2.905c-.368-.14-.763-.197-1.156-.164.217-.63 1.012-2.977 1.149-3.4.137-.421.592-.715 1.553-.421l.03-.05zm-3.454-.3c.845-.058 1.806 0 1.683.421l-.217.587-1.141 3.141c-.483-.164-1.007-.164-1.489 0v-3.399c0-.407.354-.658 1.2-.715l-.036-.036zm-3.917.908c.607-.365 2.204-1.13 2.29-.093 0 .572.138 2.77.174 3.406-.503.042-.97.272-1.308.644-.318-.558-1.38-2.44-1.596-2.862-.217-.422-.138-.68.462-1.045l-.022-.05zm-2.45 1.596c.391-.358 1.316-1.288 1.62-.494l1.531 3.091c-.332.127-.627.334-.86.601-.448-.329-2.08-1.574-2.529-1.968-.448-.393-.122-.83.26-1.195l-.021-.035zm-.534 1.48c.557.359 2.29 1.675 2.63 1.926-.374.33-.596.798-.614 1.295l-3.063-1.345c-.795-.301.267-2.34 1.09-1.825l-.043-.05zm-2.088 3.07s.166-.915.853-.837c1.095.374 2.162.823 3.193 1.346-.103.276-.143.572-.115.865v.394l-3.432-.45c-.723-.072-.492-1.26-.492-1.26l-.007-.057zm0 2.741c0-.236-.087-1.052.55-1.052.635 0 2.73.236 3.439.308 0 .794.195 1.431.614 1.61-.723 0-3.613.1-4.018.079-.404-.022-.534-.659-.513-.895l-.072-.05zm.55 2.483c-.138-.35-.261-.959.115-1.03.376-.072 4.09-.294 4.09-.294-.152.093-.239.315 0 .838.12.21.33.357.57.4 0 0-3.33.63-3.88.63-.354.015-.681-.187-.824-.508l-.072-.036zm1.38 1.996c-.427-.443-.427-1.03-.073-1.13.354-.1 3.707-.573 3.764-.573-.26.136-.216.401.058.773.166.324.509.52.875.501l-3.52.608c-.343.135-.731.095-1.04-.107l-.065-.072zm1.061 1.517c-.216-.279-.57-.794-.195-.873l3.938-.872c-.152.171-.137.436.231 1.001.103.167.262.294.448.358-.6.129-2.832.615-3.164.673-.411.077-.836-.013-1.178-.25l-.08-.037zm1.142 1.475c-.376-.659.137-.838.137-.838.578-.15 3.44-.715 3.7-.758-.101.179-.116.45.217.837.206.2.492.3.78.272 0 0-2.94.673-3.432.715-.492.043-.932.444-1.323-.214l-.079-.014zm1.243 1.338c-.116-.258-.383-.566.217-.716.6-.15 3.121-.716 3.526-.816-.025.183.019.37.122.523.188.293.493.494.839.55 0 0-2.934.788-3.41.866-.428.102-.877-.035-1.171-.357l-.123-.05zm1.141 1.624c-.31-.265-.368-.809.29-.988.657-.178 3.258-.758 3.72-.873-.151.277-.151.611 0 .888.148.243.379.426.65.515-1.11.299-2.236.538-3.373.716-.723.114-.839.05-1.15-.215l-.137-.043zm1.026 1.574c-.195-.293-.368-.873.102-.973l3.7-.716c.03.577.423 1.073.982 1.238 0 0-3.266.716-3.721.759-.338.073-.691-.014-.954-.236l-.109-.072zm.644 1.503c-.083-.192-.064-.412.05-.587.11-.18.302-.294.513-.308l3.685-.751c-.354.866.564 1.467.564 1.467l-3.721.773c-.395-.007-.759-.215-.961-.551l-.13-.043zm.585 1.689c-.061-.153-.059-.324.008-.474.066-.15.191-.269.346-.328l4.039-.816c-.52.716.246 1.517.246 1.517s-3.107.637-3.613.673c-.393.029-.763-.184-.932-.537l-.094-.035zm.426 1.61c-.058-.544.296-.716.723-.795.664-.086 3.345-.565 3.345-.565-.267 1.216.318 1.431.318 1.431-1.126.335-2.272.6-3.432.794-.43-.077-.758-.427-.802-.858l-.152-.007zm1.611.994c.723-.157 2.681-.558 2.681-.558-.723.773.195 1.61.195 1.61s-2.29.558-2.659.637c-.368.079-1.076.315-1.141-.501-.066-.816.36-1.03 1.054-1.145l-.13-.043zm-.238 3.778c-.21-.02-.403-.123-.535-.286-.126-.165-.178-.375-.144-.58.072-.815.722-.951 2.117-1.202.568-.121 1.142-.214 1.72-.279-.357.465-.298 1.123.137 1.517l-3.295.83zm5.723-1.43s-.824.3-1.142.386c-.318.085-1.012.35-1.149.107-.342-.48-.258-1.138.195-1.517.751-.245 1.516-.449 2.29-.608l-.194 1.631zm.26-1.911c-.065 0-1.763.322-2.168.415-.405.093-.556 0-.636-.516-.08-.515.087-1.13.636-1.13.55 0 1.915-.25 2.168-.272 0 .4 0 .816.065 1.26.216.2.216.3.151.293l-.216-.05zm.404.164c-.151-6.397-1.878-8.88-2.68-10.14-1.25-1.67-2.625-3.246-4.112-4.715-1.062-1.13-2.73-2.461-2.55-3.921-.008-.435.159-.854.464-1.167.305-.313.723-.493 1.161-.5.637-.065 1.279-.065 1.915 0 .145 1.688 4.04 6.11 5.896 9.374 1.857 3.262 3.432 9.924 3.432 9.924-1.24-.116-2.468.325-3.345 1.202l-.18-.057z" transform="translate(-1237 -15) translate(1237 15) translate(0 .5) translate(.09) translate(8.757)"/>
                            </g>
                            <path fill="#EFC319" d="M47.378 42.218c.558.008 1.104.156 1.59.43.51.27.93.683 1.206 1.187.571.97.571 2.17 0 3.141-.274.508-.694.924-1.207 1.195-.98.566-2.192.566-3.172 0-.512-.27-.93-.686-1.2-1.195-.275-.48-.424-1.021-.433-1.574-.007-.555.143-1.1.434-1.574.27-.509.687-.925 1.2-1.195.484-.266 1.028-.408 1.582-.415zm0 .522c-.458-.006-.909.108-1.308.33-.414.223-.76.552-1.005.951-.232.408-.347.87-.332 1.338-.014.452.1.899.332 1.288.22.418.574.752 1.005.952.42.208.881.32 1.351.329.472.014.94-.1 1.351-.33.412-.21.748-.543.961-.95.443-.821.443-1.807 0-2.627-.217-.42-.571-.755-1.004-.952-.423-.201-.883-.313-1.351-.329zm-1.395 4.387v-3.392h1.2c.291-.008.582.021.867.086.18.055.336.172.44.329.095.142.145.309.145.48.001.25-.1.49-.282.665-.199.184-.452.299-.722.329.116.023.218.093.281.193.152.15.29.386.528.673l.44.665h-.722l-.29-.522c-.15-.292-.343-.562-.57-.802-.094-.093-.238-.093-.433-.093h-.333v1.431h-.57l.021-.042zm.57-1.904h.673c.236.022.473-.028.68-.143.128-.086.203-.232.194-.386-.009-.1-.041-.195-.094-.28-.054-.09-.138-.158-.238-.193-.189-.035-.382-.035-.571 0h-.636v1.01l-.007-.008z" transform="translate(-1237 -15) translate(1237 15) translate(0 .5) translate(.09) translate(8.757)"/>
                        </g>
                    </g>
                </g>
            </g>
        </g>
    </g>
</svg>
