<?xml version="1.0" encoding="UTF-8"?>
<svg width="146px" height="32px" viewBox="0 0 146 32" version="1.1" xmlns="http://www.w3.org/2000/svg" xmlns:xlink="http://www.w3.org/1999/xlink">
    <title>33BF8470-819F-4369-93D2-36F2C7CFD8FB</title>
    <defs>
        <filter id="filter-1">
            <feColorMatrix in="SourceGraphic" type="matrix" values="0 0 0 0 1.000000 0 0 0 0 1.000000 0 0 0 0 1.000000 0 0 0 1.000000 0"></feColorMatrix>
        </filter>
    </defs>
    <g id="Page-1" stroke="none" stroke-width="1" fill="none" fill-rule="evenodd">
        <g id="Untitled-2-01" transform="translate(-232.000000, -14.000000)" filter="url(#filter-1)">
            <g transform="translate(232.000000, 14.000000)">
                <path d="M5.6950344,20.6003952 L5.344812,20.6003952 C4.47166516,20.6206677 3.59819409,20.5778676 2.731212,20.4723288 C1.7484984,20.3181264 1.04544,20.020176 0.627264,19.5837048 C0.243456761,19.2271061 0.0368273133,18.7191421 0.0627264,18.1958832 C0.0627264,17.9685 0.0836352,17.6391864 0.1280664,17.2157832 C0.1724976,16.79238 0.2299968,16.3637496 0.3031776,15.9377328 C0.3345408,15.760008 0.3606768,15.5979648 0.3868128,15.4568304 C0.399928015,15.3736719 0.424558084,15.2927445 0.4599936,15.2163792 C0.478432533,15.1685669 0.515092763,15.1300266 0.561924,15.1092216 C0.5985144,15.1092216 0.6351048,15.1249032 0.6690816,15.185016 C0.715012896,15.2802689 0.747555341,15.3814143 0.7657848,15.48558 C0.791051361,15.6476041 0.825078032,15.8081402 0.8677152,15.9664824 C0.974065228,16.3785544 1.27440987,16.7130291 1.672704,16.8629472 C2.7756432,17.3316528 4.4622864,17.5782024 6.7326336,17.602596 C7.409556,17.615664 8.0969328,17.602596 8.7895368,17.57646 C9.4821408,17.550324 10.1642904,17.4928248 10.8307584,17.4222576 C11.4972264,17.3516904 12.1375584,17.2602144 12.7595952,17.1608976 C13.381632,17.0615808 13.9540104,16.92306 14.4845712,16.7819256 C15.2904857,16.5844863 16.0775699,16.3168777 16.8368112,15.982164 C17.3219854,15.7866551 17.7524765,15.4763428 18.0913392,15.0778584 C18.1246444,15.0135124 18.1765573,14.9606888 18.2403144,14.9262696 C18.2859329,14.8992037 18.33929,14.8881643 18.3919032,14.8949064 C18.4353456,14.898527 18.4752259,14.9203662 18.5016744,14.9550192 C18.5312516,14.9927482 18.5400735,15.042739 18.5251968,15.0883128 L18.3971304,15.42024 C18.4746162,15.4242177 18.552255,15.4242177 18.6297408,15.42024 L18.81792,15.42024 C18.9189,15.6050469 18.9752854,15.8108986 18.9825768,16.021368 C18.9873773,16.231038 18.9300915,16.4374487 18.81792,16.6146552 C18.6506496,16.5754512 18.5095152,16.5493152 18.3971304,16.53102 C18.3021533,16.5142529 18.206051,16.5046426 18.1096344,16.5022704 C18.0435064,16.5007106 17.9774959,16.5086319 17.9136144,16.5257928 C17.8665862,16.5394863 17.8217161,16.5597219 17.7803208,16.5859056 C17.7650405,16.5933748 17.7509488,16.6030628 17.7385032,16.6146552 C17.7120857,16.6369373 17.6876045,16.6614185 17.6653224,16.687836 C17.6322168,16.7244264 17.5903992,16.7740848 17.5398696,16.8368112 C17.4902112,16.896924 17.4300984,16.9805592 17.354304,17.0981712 C17.0127731,17.6125275 16.5752895,18.0562228 16.0657992,18.4049712 C15.5477759,18.7583079 14.9920089,19.0528469 14.4087768,19.2831408 C13.8231157,19.5128438 13.2200784,19.6955029 12.6053928,19.8293832 C11.9911968,19.9600632 11.4109776,20.0672208 10.859508,20.1482424 C10.558944,20.1979008 10.1982672,20.2449456 9.7774776,20.294604 C9.356688,20.3442624 8.9176032,20.3913072 8.4523824,20.4331248 C7.9871616,20.4749424 7.5141,20.5141464 7.0358112,20.5455096 C6.5575224,20.5768728 6.1105968,20.595168 5.6950344,20.6003952 Z M8.1570456,9.8506584 C8.15174476,9.86856963 8.15174476,9.88763277 8.1570456,9.905544 C8.15387727,9.92106557 8.15387727,9.93706723 8.1570456,9.9525888 C8.15592867,9.96650563 8.15592867,9.98048957 8.1570456,9.9944064 C8.15816253,10.0083232 8.15816253,10.0223072 8.1570456,10.036224 L8.1570456,10.166904 C8.1581488,10.1799487 8.1581488,10.1930633 8.1570456,10.206108 C8.15607474,10.2200303 8.15607474,10.2340033 8.1570456,10.2479256 L8.128296,10.3603104 C8.13005618,10.3689335 8.13005618,10.3778233 8.128296,10.3864464 C8.12529606,10.3957948 8.12529606,10.4058476 8.128296,10.415196 L8.0917056,10.5275808 C8.07881478,10.5512167 8.06746551,10.5756613 8.0577288,10.6007616 C8.04949873,10.6260496 8.0390017,10.6505427 8.0263656,10.6739424 C8.02781874,10.6790686 8.02781874,10.6844978 8.0263656,10.689624 C8.02446414,10.6937725 8.02446414,10.6985435 8.0263656,10.702692 L7.9819344,10.7863272 C7.97057689,10.8148258 7.9546907,10.8413028 7.9348896,10.8647352 C7.91687285,10.8856774 7.90110481,10.9084535 7.8878448,10.9326888 C7.87971247,10.9408149 7.87346658,10.9506298 7.8695496,10.9614384 L7.7597784,11.1287088 L7.7127336,11.1914352 C7.69937194,11.2049709 7.68872583,11.2209401 7.6813704,11.23848 C7.6722029,11.2556125 7.66077507,11.2714357 7.6473936,11.2855248 C7.62933218,11.3154293 7.60831831,11.3434478 7.5846672,11.36916 L7.435692,11.552112 C7.42655337,11.5593825 7.42011255,11.5695038 7.4173968,11.5808616 L7.3755792,11.6279064 C7.36075481,11.6455281 7.34308698,11.6605458 7.3233072,11.6723376 L7.2684216,11.7298368 C7.25102434,11.7603458 7.22574978,11.7856203 7.1952408,11.8030176 L7.1011512,11.8944936 L7.05672,11.9336976 C7.00405314,11.9786836 6.9450501,12.0156706 6.8816088,12.0434688 L6.8241096,12.0617675 L6.7613832,12.0617675 C6.71215794,12.0620712 6.66494657,12.0422424 6.6307032,12.0068784 C6.494796,11.9023344 6.3693432,11.7925632 6.2386632,11.682792 C6.1079832,11.5730208 5.9773032,11.4632496 5.8361688,11.3587056 C5.7917376,11.3221152 5.74992,11.2881384 5.7054888,11.2567752 C5.5748088,11.1574584 5.4441288,11.068596 5.3265168,10.9954152 C5.30088746,10.9747899 5.28482951,10.9445632 5.2820856,10.91178 C5.2872923,10.8719992 5.30258741,10.8342113 5.3265168,10.8020088 L6.7326336,8.62488 C6.73064143,8.6189443 6.73064143,8.6125205 6.7326336,8.6065848 C6.76133582,8.55737916 6.81767875,8.53129447 6.873768,8.5412448 L6.8920632,8.5412448 L6.9103584,8.5412448 L6.9730848,8.5699944 C6.98352591,8.58155564 6.99717424,8.58974464 7.0122888,8.5935168 C7.02629498,8.59810262 7.03889242,8.60620098 7.0488792,8.6170392 L7.0854696,8.6353344 C7.0988399,8.642274 7.1111592,8.6510735 7.12206,8.6614704 C7.14795946,8.67467572 7.17247481,8.69043559 7.1952408,8.7085152 L7.3076256,8.7764688 C7.34604408,8.80090726 7.38272238,8.82797934 7.4173968,8.8574904 L7.4539872,8.8836264 C7.5114864,8.9280576 7.5637584,8.9698752 7.6134168,9.0143064 C7.6630752,9.0587376 7.71012,9.1031688 7.7597784,9.1528272 L7.8721632,9.2808936 L7.9557984,9.3932784 C7.99625615,9.45134606 8.03042502,9.51355092 8.0577288,9.578844 C8.07229859,9.60471549 8.08454343,9.63182907 8.0943192,9.6598656 L8.1204552,9.7435008 C8.1204552,9.7435008 8.1204552,9.7565688 8.1204552,9.761796 C8.11868326,9.77129729 8.11868326,9.78104431 8.1204552,9.7905456 C8.11651135,9.81679496 8.13191747,9.84210503 8.1570456,9.8506584 L8.1570456,9.8506584 Z M10.97712,9.67032 C11.0255124,9.84119995 11.0255124,10.0221601 10.97712,10.19304 C10.9188034,10.3965335 10.8307319,10.5902909 10.71576,10.768032 C10.611216,10.9274616 10.5040584,11.0764368 10.3969008,11.2149576 C10.2874752,11.3543927 10.1687195,11.4862464 10.0414512,11.6096112 C9.97813187,11.6802646 9.90612072,11.7426158 9.827136,11.7951768 C9.77894603,11.8262778 9.72596606,11.8492358 9.67032,11.8631304 C9.63384458,11.8752867 9.59441062,11.8752867 9.5579352,11.8631304 C9.52883328,11.8525096 9.50151424,11.8375282 9.4769136,11.8186992 C9.2599848,11.6462016 9.0482832,11.4710904 8.8418088,11.2959792 C8.62804731,11.1136736 8.40089655,10.9476788 8.1622728,10.7993952 C8.13513825,10.7773736 8.11438419,10.7484984 8.10216,10.71576 C8.10954017,10.676944 8.12562496,10.6403064 8.1492048,10.6086024 L9.5553216,8.4445416 C9.58140861,8.39908309 9.62848143,8.36966258 9.6807744,8.3661336 C9.72879383,8.37246446 9.77454593,8.39040646 9.814068,8.4184056 C9.9369072,8.4915864 10.075428,8.5699944 10.1878128,8.6536296 C10.3131535,8.73541563 10.4296496,8.83001397 10.5354216,8.9358984 C10.6391637,9.03841481 10.7320065,9.15140268 10.8124632,9.2730528 C10.8924089,9.39364184 10.9483179,9.52853329 10.97712,9.67032 L10.97712,9.67032 Z" id="Shape" fill="#000000" fill-rule="nonzero"></path>
                <path d="M26.6299704,11.0450736 C26.66045,11.0011747 26.7019022,10.9660304 26.750196,10.9431432 C26.7778272,10.9277896 26.8114272,10.9277896 26.8390584,10.9431432 C26.8635659,10.9632348 26.8786959,10.9925493 26.880876,11.0241648 C26.885202,11.0738423 26.8752264,11.1237205 26.8521264,11.1679128 C26.6075028,11.9697048 26.1767333,12.7022816 25.5949848,13.3058376 C25.456566,13.453316 25.3012993,13.5840207 25.1323776,13.695264 C24.9802812,13.8097204 24.7992401,13.8794212 24.6096576,13.8965112 C24.401329,14.1553581 24.167547,14.3926424 23.9118264,14.6047968 C23.639323,14.8215568 23.2893888,14.9161336 22.9447944,14.8661568 C22.725316,14.8463107 22.5070084,14.9150023 22.3384392,15.0569496 C22.1554872,15.2006976 22.0274208,15.3183096 21.95424,15.3758088 C21.4733376,15.8619384 21.0159576,16.2984096 20.5847136,16.6826088 C20.203128,16.9779456 19.8659736,17.0563536 19.5732504,16.9126056 C19.3298209,16.7933075 19.0772386,16.693673 18.81792,16.6146552 C18.6738757,16.4785781 18.5909313,16.2900682 18.5879232,16.0919352 C18.6100401,15.8529234 18.6888907,15.6226436 18.81792,15.42024 C19.1712274,15.3896161 19.5210959,15.3275145 19.86336,15.2346744 C20.1819338,15.1450943 20.4902715,15.02246 20.7833472,14.8687704 C21.1143041,14.6955872 21.4330351,14.4999825 21.7373112,14.283324 C22.0561704,14.0481 22.420332,13.7640888 22.829796,13.4312904 C23.1255754,13.1695121 23.5201328,13.0484763 23.9118264,13.0993632 C24.3300024,13.1864832 24.7525344,12.8684952 25.1794224,12.1453992 C25.193072,12.1062154 25.2238738,12.0754136 25.2630576,12.061764 C25.2991585,12.0533001 25.3367279,12.0533001 25.3728288,12.061764 C25.4885199,12.1097766 25.6158252,12.1225071 25.7387328,12.0983544 C25.9191317,12.0271101 26.0739384,11.9032647 26.1830448,11.7429048 C26.3594758,11.5290663 26.50953,11.2947713 26.6299704,11.0450736 L26.6299704,11.0450736 Z" id="Path" fill="#000000" fill-rule="nonzero"></path>
                <path d="M27.5264352,11.2933656 L28.48824,9.0273744 C28.5692616,8.8418088 28.6346016,8.7503328 28.68426,8.7503328 C28.7339184,8.7503328 28.788804,8.807832 28.7574408,8.925444 C28.70207,9.14688208 28.658449,9.37109361 28.6267608,9.5971392 C28.5779736,9.9125136 28.5413832,10.1608056 28.5169896,10.3420152 C28.4803992,10.6556472 28.4438088,11.0110968 28.4046048,11.4057504 C28.3654008,11.800404 28.3340376,12.205512 28.305288,12.6210744 C28.2765384,13.0366368 28.2425616,13.4443584 28.2111984,13.839012 C28.1798352,14.2336656 28.1458584,14.5865016 28.109268,14.9027472 C28.0405595,15.7003896 27.8890257,16.4887158 27.6571152,17.2549872 C27.4648479,17.8469437 27.2262731,18.4228439 26.9436024,18.9773496 C26.6822424,19.5000696 26.4548592,19.7797248 26.2875888,19.8032472 C26.2431576,19.8032472 26.2562256,19.693476 26.3241792,19.47132 C26.4186759,19.2157502 26.4946664,18.953714 26.5515624,18.68724 C26.6221296,18.373608 26.684856,18.03384 26.7397416,17.6731632 C26.7946272,17.3124864 26.8442856,16.9439688 26.8887168,16.5649968 C26.933148,16.1860248 26.9697384,15.825348 26.998488,15.48558 C27.0272376,15.145812 27.0795096,14.6858184 27.1108728,14.0481 C27.142236,13.4103816 27.1866672,12.8693664 27.2493936,12.4250544 C27.2987354,12.0385782 27.3916744,11.6589309 27.5264352,11.2933656 Z" id="Path" fill="#000000" fill-rule="nonzero"></path>
                <path d="M33.12738,15.94296 C33.1183063,16.3978473 33.0452811,16.8491961 32.9104512,17.2837368 C32.7743806,17.7529286 32.5803493,18.2033271 32.3328456,18.6245136 C32.0347896,19.1663779 31.6518346,19.6569838 31.1985432,20.0776752 C30.8400859,20.4006423 30.374233,20.5785981 29.8917432,20.5768852 C29.1390264,20.5768852 28.762668,20.1604392 28.762668,19.327572 C28.7684239,19.0114967 28.8276303,18.6986749 28.9377792,18.4023576 C29.0552643,18.0711443 29.2104885,17.754557 29.4003864,17.458848 C29.5911792,17.1635112 29.755836,16.9126056 29.8917432,16.7113584 L29.6303832,16.6407912 C29.6061496,16.63684 29.581436,16.63684 29.5572024,16.6407912 C29.5397784,16.5641256 29.9405304,15.7408416 30.7594584,14.1709392 C30.8814264,13.9357152 30.9833568,13.8181032 31.0652496,13.8181032 C31.2301421,13.8429429 31.3878473,13.9026392 31.5278568,13.9932144 C31.7632201,14.1284704 31.988569,14.2804499 32.2021656,14.4479808 C32.4325716,14.6230276 32.6352312,14.831855 32.8032936,15.067404 C32.9808217,15.328607 33.0920564,15.6291201 33.12738,15.94296 L33.12738,15.94296 Z M31.82058,18.0965664 C31.8253556,17.8233333 31.7026597,17.5634497 31.4886528,17.393508 C31.3416589,17.2714024 31.1832394,17.1637471 31.0155912,17.0720352 C30.8609628,16.9726834 30.6889192,16.9035113 30.5085528,16.8681744 C30.409236,16.8681744 30.2471928,17.0432856 29.9858328,17.3908944 C29.7760072,17.6407907 29.6450293,17.9473155 29.6094744,18.2716776 C29.6094744,18.726444 29.9100384,18.9564408 30.5085528,18.9564408 C30.8131547,18.946336 31.1097243,18.8561933 31.3684272,18.6950808 C31.6611504,18.5251968 31.8127392,18.3239496 31.8127392,18.1017936 L31.82058,18.0965664 Z" id="Shape" fill="#000000" fill-rule="nonzero"></path>
                <path d="M32.9130648,20.294604 C33.0724944,20.1717648 33.2632872,20.033244 33.4854432,19.850292 C34.0198923,19.4608571 34.517671,19.0234417 34.9725816,18.543492 C35.3698488,18.1183464 35.5806792,17.79426 35.6050728,17.5712328 C35.65386,17.306388 35.505756,16.9674912 35.1607608,16.5545424 C34.7974232,16.1299532 34.3840895,15.7508447 33.9297552,15.4254672 C33.900075,15.4059708 33.8786617,15.3761784 33.8696424,15.341832 C33.867302,15.3164111 33.8727728,15.2908811 33.885324,15.2686512 L34.3191816,14.270256 L34.930764,12.9007296 C34.9778088,12.7883448 35.0248536,12.6994824 35.0640576,12.6393696 C35.1032616,12.5792568 35.15292,12.5531208 35.2078056,12.5897112 C35.4691656,12.80664 35.7305256,13.0392504 35.9788176,13.2875424 C36.2387875,13.5414532 36.4614195,13.8309627 36.6400584,14.1474168 C36.8431713,14.5398662 36.939609,14.9787929 36.9197136,15.42024 C36.9207495,16.0145003 36.8217939,16.6046998 36.6269904,17.1661248 C36.4155933,17.7650613 36.1532742,18.3447865 35.8429104,18.8989416 C35.7241572,19.1075732 35.5858888,19.3044744 35.4299616,19.4870016 C35.2518953,19.6825855 35.0345979,19.8384341 34.7922432,19.9443816 C34.21363,20.183863 33.6220251,20.390663 33.0202224,20.5638048 C32.9461476,20.5965725 32.8616868,20.5965725 32.787612,20.5638048 C32.787612,20.5638048 32.787612,20.5219872 32.787612,20.477556 C32.8128689,20.406731 32.8560997,20.3436862 32.9130648,20.294604 L32.9130648,20.294604 Z" id="Path" fill="#000000" fill-rule="nonzero"></path>
                <path d="M41.0701104,17.0380584 C40.8133174,17.704117 40.5030281,18.3482952 40.1422824,18.9642816 C39.9687849,19.256605 39.7520112,19.5209633 39.4993368,19.7483616 C39.2659152,19.9144109 39.0085773,20.0439612 38.7361656,20.1325608 C38.3932823,20.2541929 38.0443359,20.3580044 37.6907256,20.4435792 C37.4217633,20.5169064 37.1458009,20.5615861 36.8674416,20.5768728 C36.7916472,20.5768728 36.7550568,20.5768728 36.7550568,20.5768728 C36.7053984,20.5141464 36.9615312,20.3155128 37.518228,19.954836 C37.9971251,19.6596846 38.4595493,19.3386051 38.903436,18.9930312 C39.2583234,18.7069888 39.5832091,18.3856059 39.8730816,18.03384 C40.1444977,17.7153197 40.3529255,17.348132 40.4872776,16.9518096 C40.406574,16.9861791 40.3236169,17.0149958 40.2389856,17.0380584 C40.1369044,17.066825 40.0329945,17.0886549 39.9279672,17.1033984 C39.8208096,17.11908 39.7162656,17.1295344 39.6195624,17.1347616 C39.5327854,17.1456945 39.4449794,17.1456945 39.3582024,17.1347616 C39.0349475,17.1204473 38.7265675,16.9948794 38.48526,16.779312 C38.2622281,16.5814416 38.1410893,16.2930158 38.1559464,15.995232 C38.1820453,15.8102649 38.2258052,15.6282236 38.2866264,15.4516032 C38.4087367,15.1115126 38.5509942,14.7789967 38.7126432,14.4558216 C38.8971438,14.0510689 39.135386,13.6730462 39.4209288,13.3319736 C39.5853293,13.0884974 39.8458957,12.9268322 40.1370552,12.8876321 C40.5144486,12.8849699 40.8694704,13.0663821 41.0884056,13.3737912 C41.3522848,13.7107996 41.5145768,14.1160762 41.55624,14.5420704 C41.5692765,14.7703779 41.5640326,14.9993623 41.5405584,15.2268336 C41.5255884,15.417409 41.4985267,15.6068408 41.4595368,15.7939848 C41.42556,15.9455736 41.373288,16.1415936 41.3053344,16.3768176 C41.2384579,16.601165 41.1599435,16.8218774 41.0701104,17.0380584 L41.0701104,17.0380584 Z" id="Path" fill="#000000" fill-rule="nonzero"></path>
                <path d="M43.1244,25.2264672 C43.0610269,25.4417636 42.9620873,25.6449431 42.8316768,25.8275952 C42.7533238,25.9614111 42.6660043,26.0897707 42.5703168,26.2117944 C42.4736136,26.3267928 42.3742968,26.4339504 42.2697528,26.541108 C42.2235039,26.5908178 42.1737152,26.6371125 42.1207776,26.6796288 C42.052824,26.7353856 41.9822568,26.7876576 41.909076,26.8364448 C41.8429262,26.881227 41.7707726,26.9164238 41.6947608,26.9409888 C41.6268072,26.9645112 41.5797624,26.9566704 41.5483992,26.92008 C41.3262432,26.7397416 41.1067008,26.5594032 40.889772,26.3738376 C40.6673039,26.1806939 40.4295605,26.0058826 40.1788728,25.8511176 C40.1344416,25.8197544 40.1161464,25.7910048 40.11876,25.7622552 C40.1281359,25.7179413 40.1449246,25.6755279 40.1684184,25.6368024 L41.6503296,23.3812656 C41.6921472,23.3185392 41.7365784,23.2897896 41.778396,23.2924032 C41.8278098,23.2979293 41.8752465,23.314935 41.9169168,23.3420616 C42.0475968,23.417856 42.1782768,23.5014912 42.3063432,23.6034216 C42.4345126,23.6936734 42.5551352,23.7941923 42.66702,23.9039856 C42.7779199,24.0098733 42.8761519,24.1282779 42.9597432,24.2568216 C43.0363154,24.3857358 43.0918954,24.526009 43.1244,24.672384 C43.1742349,24.8537167 43.1742349,25.0451345 43.1244,25.2264672 Z M41.242608,16.4186352 C41.4891228,16.2082811 41.7165232,15.9765077 41.922144,15.7260312 C42.3090072,15.2407323 42.6346705,14.7096641 42.8917896,14.1448032 C43.2322879,13.4489912 43.4169174,12.6872828 43.4328048,11.9127888 L43.4615544,9.722592 C43.4703681,9.60898473 43.4543139,9.49482155 43.4145096,9.3880512 C43.3657224,9.3026736 43.3134504,9.3026736 43.2576936,9.3880512 C42.6957696,11.0110968 42.4082736,11.8761984 42.3873648,11.9885832 C42.3666622,12.0935447 42.3578945,12.2005106 42.3612288,12.3074424 C42.3611302,12.4515891 42.3698585,12.5956066 42.3873648,12.7386864 C42.4082736,12.885048 42.4213416,13.0183416 42.4344096,13.1385672 C42.4462163,13.2672082 42.437393,13.3969095 42.4082736,13.5227664 C42.3600811,13.7335903 42.2364454,13.9195087 42.0606648,14.0454864 C41.8064571,14.2451719 41.524772,14.4071408 41.2243128,14.5263888 C40.798296,14.6805912 40.5839808,14.8687704 40.5839808,15.0909264 C40.5847524,15.2177647 40.5943589,15.3443952 40.6127304,15.4698984 C40.6712704,15.7104503 40.717504,15.9538312 40.7512512,16.1990928 C40.7965536,16.7252976 40.9620816,16.7984784 41.2478352,16.4186352 L41.242608,16.4186352 Z" id="Shape" fill="#000000" fill-rule="nonzero"></path>
                <path d="M45.0610776,11.2933656 L46.0228824,9.0273744 C46.103904,8.8418088 46.169244,8.7503328 46.2189024,8.7503328 C46.2685608,8.7503328 46.3234464,8.807832 46.2920832,8.925444 C46.2367124,9.14688208 46.1930914,9.37109361 46.1614032,9.5971392 C46.112616,9.9125136 46.0760256,10.1608056 46.051632,10.3420152 C46.0150416,10.6556472 45.9784512,11.0110968 45.9392472,11.4057504 C45.9000432,11.800404 45.86868,12.205512 45.8373168,12.6210744 C45.8059536,13.0366368 45.777204,13.4443584 45.7458408,13.839012 C45.7144776,14.2336656 45.6805008,14.5865016 45.6439104,14.9027472 C45.5752019,15.7003896 45.4236681,16.4887158 45.1917576,17.2549872 C44.9994903,17.8469437 44.7609155,18.4228439 44.4782448,18.9773496 C44.2168848,19.5000696 43.9895016,19.7797248 43.8222312,19.8032472 C43.7778,19.8032472 43.790868,19.693476 43.8588216,19.47132 C43.9533183,19.2157502 44.0293088,18.953714 44.0862048,18.68724 C44.156772,18.373608 44.2194984,18.03384 44.274384,17.6731632 C44.3292696,17.3124864 44.378928,16.9439688 44.4233592,16.5649968 C44.4677904,16.1860248 44.5043808,15.825348 44.5331304,15.48558 C44.56188,15.145812 44.614152,14.6858184 44.6455152,14.0481 C44.6768784,13.4103816 44.7213096,12.8693664 44.784036,12.4250544 C44.8321288,12.0383475 44.9251025,11.6585586 45.0610776,11.2933656 Z" id="Path" fill="#000000" fill-rule="nonzero"></path>
                <path d="M48.7227312,19.602 C48.3642736,20.1048689 47.8554586,20.4809894 47.2695696,20.6761896 C46.7102592,20.8120968 46.1012904,20.9375496 45.4400496,21.0473208 C45.3446085,21.05668 45.2482748,21.0450843 45.1577808,21.013344 C45.0924408,20.987208 45.1577808,20.9061864 45.3381192,20.77812 C46.090836,20.333808 46.7712432,19.898208 47.3793408,19.47132 C47.9395877,19.079229 48.4427128,18.6112876 48.87432,18.0808848 C49.2933302,17.5424286 49.6534483,16.960632 49.9485096,16.3454544 C50.2760808,15.6798576 50.5722888,15.0569496 50.8371336,14.4767304 C50.9050872,14.3538912 50.9808816,14.30946 51.0671304,14.3434368 C51.1533792,14.3774136 51.16122,14.4897984 51.0854256,14.6805912 C50.8762434,15.1311074 50.7395233,15.6118331 50.6803176,16.1050032 L50.6803176,16.1337528 C50.6228184,16.2984096 50.586228,16.3951128 50.5679328,16.4473848 C50.3457768,16.9465824 50.11578,17.419644 49.8753288,17.8613424 C49.5330528,18.4682575 49.147874,19.0499561 48.7227312,19.602 L48.7227312,19.602 Z" id="Path" fill="#000000" fill-rule="nonzero"></path>
                <path d="M50.6855448,16.0501176 C50.6794408,16.3528458 50.7524102,16.6519303 50.8972464,16.9178328 C51.1100056,17.3392271 51.5206863,17.6251316 51.9897312,17.6783904 C52.4532096,16.9117344 52.8478632,16.2896976 53.173692,15.81228 C53.4405238,15.4150514 53.7302522,15.0336919 54.0414072,14.6701368 C54.4256064,14.2258248 54.8019648,13.995828 55.1757096,13.9775328 C55.5952776,13.9725496 56.0106072,14.0618678 56.3910336,14.2388928 C56.7520818,14.4229478 57.1761871,14.437308 57.5488584,14.2780968 C57.6403344,14.2023024 57.7056744,14.2023024 57.7396512,14.2780968 C57.7710855,14.3497229 57.7710855,14.4312403 57.7396512,14.5028664 C57.6850835,14.6934372 57.6205254,14.8810045 57.5462448,15.0647904 C57.4822635,15.2591966 57.3770655,15.4374983 57.23784,15.5875104 L57.015684,15.8096664 C56.9329342,15.8912378 56.8560757,15.9785771 56.7856872,16.0710264 C56.4650856,16.5031416 56.1331584,16.9944984 55.7899056,17.5450968 C55.4585365,18.0822013 55.0927385,18.5972867 54.6948072,19.0871208 C54.3037685,19.5615021 53.8244801,19.9555838 53.2834632,20.2475592 C52.6648829,20.5574653 51.964615,20.6653395 51.2814456,20.555964 C50.7307181,20.5432493 50.2131308,20.2901854 49.8648744,19.86336 C49.5561683,19.4286948 49.3841751,18.9118053 49.370904,18.3788352 C49.3779991,17.991697 49.4614896,17.6097724 49.6165824,17.2549872 C49.8223865,16.7848059 50.145461,16.3753381 50.5548648,16.0657992 L50.6672496,15.9926184 L50.6672496,16.0579584 L50.6855448,16.0501176 Z M52.5804048,17.6862386 C53.1946416,17.6874613 53.7993886,17.534702 54.3393576,17.2419192 C55.0733768,16.8548088 55.6919401,16.2804286 56.1322872,15.577056 C55.859765,15.4288655 55.5688902,15.317261 55.2671856,15.2451288 C55.0184621,15.1691921 54.7527379,15.1691921 54.5040144,15.2451288 C54.2426544,15.3444456 53.9133408,15.6711456 53.5291416,16.2252288 C53.1449424,16.779312 52.8260832,17.2680552 52.5804048,17.6862386 Z M56.2159224,7.2710352 C56.2668132,7.45222398 56.2668132,7.64392962 56.2159224,7.8251184 C56.152418,8.03988562 56.0544381,8.2429071 55.9258128,8.4262464 C55.8474598,8.56006225 55.7601403,8.68842194 55.6644528,8.8104456 C55.5677496,8.925444 55.4684328,9.0352152 55.3612752,9.1397592 C55.3174315,9.19089089 55.2683795,9.23731513 55.2149136,9.27828 C55.14696,9.3331656 55.0763928,9.3854376 55.0005984,9.435096 C54.9350909,9.48003756 54.8639003,9.51607232 54.7888968,9.5422536 C54.7392676,9.56675116 54.6795885,9.55732813 54.6399216,9.5187312 C54.4177656,9.3383928 54.2008368,9.1580544 53.983908,8.9724888 C53.7614399,8.77934513 53.5236965,8.60453383 53.2730088,8.4497688 C53.2285776,8.4184056 53.2076688,8.389656 53.212896,8.3609064 C53.2214701,8.31635489 53.2383133,8.27380358 53.2625544,8.2354536 L54.741852,5.9799168 C54.7862832,5.9171904 54.8281008,5.8884408 54.872532,5.8910544 C54.9218394,5.89703476 54.9691761,5.91400453 55.0110528,5.9407128 C55.1417328,6.0165072 55.2724128,6.1001424 55.4004792,6.2020728 C55.5276272,6.29364945 55.6481523,6.39408706 55.761156,6.5026368 C55.8704548,6.60930089 55.9677384,6.72761879 56.0512656,6.8554728 C56.1298946,6.98336691 56.1856151,7.12399478 56.2159224,7.2710352 L56.2159224,7.2710352 Z" id="Shape" fill="#000000" fill-rule="nonzero"></path>
                <path d="M62.46504,20.5925544 C61.6577666,20.6009694 60.8508712,20.5538132 60.0500736,20.45142 C59.0647464,20.2998312 58.361688,20.0018808 57.9408984,19.5654096 C57.5580546,19.2083323 57.3524083,18.7004339 57.3789744,18.177588 C57.3789744,17.9475912 57.3998832,17.6208912 57.4417008,17.197488 C57.486132,16.7714712 57.5436312,16.3454544 57.6194256,15.9194376 C57.6481752,15.7417128 57.6769248,15.5796696 57.7004472,15.4385352 C57.7155315,15.3555242 57.7409961,15.2747399 57.7762416,15.198084 C57.8076048,15.1353576 57.838968,15.1013808 57.878172,15.0909264 C57.917376,15.080472 57.9487392,15.106608 57.982716,15.1667208 C58.0302483,15.2613261 58.062868,15.3627116 58.0794192,15.4672848 C58.1055552,15.6214872 58.139532,15.7809168 58.1813496,15.9481872 C58.2896796,16.3591944 58.5893152,16.6928795 58.9863384,16.844652 C60.0840504,17.3203272 61.7558832,17.5668768 64.0018368,17.5843008 C64.4017176,17.5843008 64.8381888,17.5686192 65.3086368,17.5346424 C65.7790848,17.5006656 66.267828,17.4536208 66.7748664,17.3961216 C67.2819048,17.3386224 67.796784,17.2654416 68.3247312,17.1818064 C68.8526784,17.0981712 69.3701712,17.001468 69.8772096,16.8916968 C70.384248,16.7819256 70.8756048,16.6564728 71.3486664,16.5205656 C71.821728,16.3846584 72.2608128,16.2382968 72.6554664,16.0762536 C72.64812,15.9892885 72.64812,15.9018587 72.6554664,15.8148936 C72.6771878,15.6455016 72.7202171,15.4795314 72.7835328,15.3209232 C73.0462241,14.6953654 73.3428736,14.0846164 73.6721568,13.4914032 C74.2576032,12.493008 74.8125576,11.9938104 75.33702,11.9938104 C75.6845886,11.9783553 76.0196401,12.1251213 76.2439392,12.3910776 C76.4639167,12.6940802 76.5753305,13.0623902 76.5601848,13.4365176 C76.554091,13.7169035 76.5163911,13.9957074 76.4478,14.2676424 C76.3746192,14.6257056 76.290984,14.9524056 76.199508,15.250356 C76.4240378,15.2485784 76.647958,15.2267112 76.8685896,15.185016 C77.1067513,15.1392461 77.3384534,15.064645 77.55858,14.96286 C77.5989045,15.0625635 77.6329479,15.1646937 77.6605104,15.2686512 C77.6875025,15.4357095 77.6875025,15.6060177 77.6605104,15.773076 C77.6543453,15.8965225 77.623227,16.0174392 77.5690344,16.1285256 C77.3504865,16.2525171 77.1234024,16.3608188 76.8894984,16.452612 C76.6281384,16.5519288 76.3667784,16.6434048 76.1054184,16.7296536 C75.8440584,16.8159024 75.5434944,16.8995376 75.2507712,16.9910136 C74.958048,17.0824896 74.6653248,17.1635112 74.3752152,17.2523736 L72.6737616,18.2507688 L72.6554664,18.2507688 C71.2482455,19.0590555 69.7262825,19.6486289 68.1417792,19.9992672 C66.2790098,20.41691 64.3739101,20.6160157 62.46504,20.5925544 L62.46504,20.5925544 Z M70.514928,7.4539872 C70.5645989,7.6362289 70.5645989,7.8284423 70.514928,8.010684 C70.4515549,8.22598042 70.3526153,8.42915991 70.2222048,8.611812 C70.1447047,8.74616485 70.057345,8.87458361 69.9608448,8.9960112 C69.8641416,9.108396 69.7648248,9.2181672 69.6602808,9.3227112 C69.6148877,9.37406313 69.5650345,9.42129256 69.5113056,9.4638456 C69.443352,9.5196024 69.3727848,9.5718744 69.299604,9.6206616 C69.2337321,9.66592225 69.1615066,9.7011542 69.0852888,9.7252056 C69.0173352,9.748728 68.9702904,9.7408872 68.9389272,9.7042968 C68.7167712,9.5239584 68.4972288,9.34362 68.2829136,9.1580544 C68.0590461,8.96550587 67.8204832,8.79073452 67.5694008,8.6353344 C67.5249696,8.6039712 67.5066744,8.572608 67.509288,8.546472 C67.5186639,8.50215813 67.5354526,8.45974474 67.5589464,8.4210192 L69.0408576,6.1628688 C69.0826752,6.102756 69.1271064,6.0740064 69.168924,6.07662 C69.2183378,6.08214615 69.2657745,6.09915176 69.3074448,6.1262784 C69.4419514,6.20618605 69.571957,6.29343807 69.6968712,6.3876384 C69.8203325,6.47678275 69.9365632,6.57553516 70.04448,6.6829752 C70.1547137,6.78852416 70.2528893,6.90598433 70.3372032,7.0331976 C70.4217742,7.16230364 70.4844709,7.30447503 70.5227688,7.4539872 L70.514928,7.4539872 Z M75.8806488,14.466276 C75.6454248,13.8930264 75.31524,13.6064016 74.8900944,13.6064016 C74.5080973,13.6035093 74.1473605,13.7819382 73.9178352,14.087304 C73.7613157,14.2408356 73.6633273,14.4442077 73.6407936,14.662296 C73.6407936,14.8086576 73.7662464,14.9576328 74.0197656,15.106608 C74.2138106,15.2227477 74.4320522,15.2925134 74.657484,15.3104688 C74.9477188,15.2932616 75.2270015,15.1935178 75.4624728,15.0229728 C75.7499688,14.819112 75.8884896,14.63616 75.8884896,14.466276 L75.8806488,14.466276 Z" id="Shape" fill="#000000" fill-rule="nonzero"></path>
                <path d="M77.5899432,16.1050032 C77.5236092,15.9173139 77.4848724,15.7209892 77.4749448,15.5221704 C77.4668675,15.3215493 77.506269,15.1218553 77.5899432,14.9393376 C78.2001595,14.5886746 78.768372,14.1695302 79.283556,13.6900368 C79.6172617,13.4022365 79.9259058,13.0865976 80.2061568,12.7465272 C80.4413808,12.4851672 80.5537656,12.28392 80.5406976,12.1558536 C80.4553443,12.0613211 80.3511909,11.9856541 80.2349064,11.9336976 C80.0663398,11.8396714 79.8727037,11.8003962 79.6808232,11.8213128 C79.3560718,11.8259091 79.0491881,11.9707734 78.839244,12.21858 C78.5846709,12.4938273 78.363589,12.7982535 78.1806168,13.1254992 L77.6735784,13.9409424 C77.5611936,14.1369624 77.4435816,14.2023024 77.3207424,14.1630984 C77.2658568,14.1448032 77.244948,14.0794632 77.2606296,13.9670784 C77.285214,13.8306327 77.3338891,13.6996523 77.4043776,13.5802656 C77.5446345,13.3375176 77.6711575,13.0870895 77.7833496,12.8301624 C77.8984615,12.5115766 77.985905,12.1836635 78.0447096,11.8500624 C78.1538238,11.2945334 78.2245583,10.7321507 78.2564112,10.166904 L78.4419768,7.8617088 C78.4878919,7.58099631 78.5605318,7.30531483 78.6589056,7.0384248 C78.791328,6.6376728 78.90894,6.3214272 79.0117416,6.089688 L79.3306008,5.3631072 C79.3802592,5.344812 79.4090088,5.3631072 79.4220768,5.3866296 C79.4361774,5.45913117 79.4361774,5.53367043 79.4220768,5.606172 C79.3108519,6.03574307 79.2287723,6.47233694 79.1763984,6.912972 C79.1328384,7.3294056 79.0640136,8.4471552 78.969924,10.2662208 C78.9388685,10.6812225 78.8581414,11.0910003 78.7294728,11.486772 C79.0099539,11.0474817 79.3635363,10.659425 79.7749128,10.3394016 C79.9888105,10.191549 80.2373039,10.1015152 80.4962664,10.0780416 C80.7698925,10.0568716 81.037404,10.1663963 81.21762,10.3733784 C81.3776356,10.5523624 81.4700832,10.7816322 81.47898,11.0215512 C81.4358469,11.5854295 81.2746757,12.1339459 81.0059184,12.6315288 C80.6426378,13.3823609 80.1468176,14.0614575 79.5423024,14.63616 C79.479576,14.6962728 79.2548064,14.89752 78.86538,15.2189928 C78.4759536,15.5404656 78.3060696,15.6606912 78.2930016,15.6606912 L77.5899432,16.1050032 Z" id="Path" fill="#000000" fill-rule="nonzero"></path>
                <path d="M83.8521288,3.7740384 C83.7902103,4.03178342 83.7482682,4.29392118 83.726676,4.5581184 C83.70054,4.8639096 83.6665632,5.2193592 83.6299728,5.6270808 L83.3686128,10.0702008 C83.2827634,11.0365142 82.9951736,11.9740747 82.52442,12.8223216 C82.057911,13.6471086 81.4175892,14.360559 80.6478552,14.9132016 C80.311321,15.1492795 79.9436525,15.3375118 79.5553704,15.472512 C79.1234631,15.6174399 78.6701211,15.6880417 78.2145936,15.6816 C78.0680603,15.6998634 77.9193024,15.6791274 77.7833496,15.6214872 C77.7019078,15.5837367 77.6388826,15.5150674 77.6082384,15.4306944 C77.587347,15.3590955 77.6008641,15.2818555 77.6448288,15.2216064 C77.6961841,15.1553516 77.7710423,15.1113724 77.8539168,15.0987672 C78.3410481,15.0183075 78.8132987,14.8650022 79.2548064,14.6440008 C79.6574532,14.4452583 80.0399463,14.20806 80.3969496,13.9357152 C80.7003905,13.7077008 80.9852928,13.456008 81.2489832,13.1829984 C81.4842072,12.93732 81.661932,12.7413 81.7717032,12.6001656 C81.9357842,12.4107475 82.0602061,12.1903431 82.1376072,11.9519928 C82.2254473,11.698243 82.283339,11.435099 82.3101048,11.1679128 C82.376316,10.3960296 82.432944,9.6302448 82.4799888,8.8705584 C82.5270336,8.110872 82.5714648,7.3320192 82.6132824,6.534 C82.6191655,6.3910828 82.6348843,6.24874043 82.6603272,6.1079832 C82.6813707,5.99692965 82.7110824,5.88769543 82.7491896,5.7812832 C82.7831664,5.68458 82.8171432,5.5957176 82.8537336,5.5199232 C82.890324,5.4441288 82.9243008,5.35788 82.955664,5.2846992 C83.0314584,5.1304968 83.0941848,4.9945896 83.151684,4.8822048 C83.2091832,4.76982 83.2588416,4.6548216 83.3085,4.5450504 C83.3581584,4.4352792 83.4078168,4.3150536 83.4548616,4.1922144 C83.5019064,4.0693752 83.5672464,3.9308544 83.6404272,3.7583568 C83.6770176,3.6538128 83.7214488,3.6146088 83.7763344,3.645972 C83.8269242,3.66744963 83.8576441,3.71935568 83.8521288,3.7740384 Z" id="Path" fill="#000000" fill-rule="nonzero"></path>
                <path d="M92.1738312,14.0507136 C92.4542934,14.1481866 92.66598,14.3815342 92.7357791,14.6701368 C92.7367342,14.8616706 92.7076301,15.0521702 92.6495064,15.2346744 C92.5678359,15.4651727 92.4700191,15.6896274 92.3567832,15.9063696 C92.2273875,16.1654787 92.0705437,16.4099448 91.8889488,16.635564 C91.7361128,16.8354564 91.5462198,17.004053 91.3296384,17.132148 C91.084794,17.2626439 90.8197315,17.3509981 90.5455584,17.393508 C89.8513486,17.4685026 89.1701966,17.6354947 88.5200184,17.890092 C87.9950815,18.0974612 87.4981287,18.3696439 87.0407208,18.700308 C86.6731945,18.9633889 86.3434304,19.2755656 86.0606208,19.628136 C85.8493574,19.8896008 85.6735941,20.1778526 85.5379008,20.4853968 C85.2945932,21.0251832 85.1097185,21.5894454 84.9864312,22.1685552 C84.8801448,22.703472 84.7477224,23.4544464 84.589164,24.4214784 C84.4015587,25.7442763 84.2907307,27.0768303 84.2572368,28.4124456 C84.192768,30.1095432 84.1509504,31.1732784 84.131784,31.6036512 C84.118716,31.6585368 84.1004208,31.6899 84.0768984,31.6925136 C84.053376,31.6951272 84.0324672,31.6925136 84.0220128,31.6402416 C83.9714832,30.7951776 83.9340216,29.9893176 83.909628,29.2226616 C83.8852344,28.4560056 83.8948176,27.2703024 83.9383776,25.665552 C84.011316,24.1542982 84.2497064,22.6555943 84.6492768,21.196296 C84.7957155,20.7074783 84.9702458,20.2275201 85.1719968,19.758816 C85.6361628,18.6378754 86.3717381,17.6499231 87.3125352,16.883856 C87.8478622,16.4461925 88.4394493,16.0822742 89.071488,15.8018256 C89.4615767,14.975794 89.909621,14.1783975 90.4122648,13.4156088 C90.4539099,13.3625775 90.5133133,13.3263785 90.5795352,13.3136784 C90.6521197,13.2949779 90.7267375,13.2853214 90.8016912,13.2849288 C90.8774193,13.2854292 90.952522,13.2986827 91.0238472,13.3241328 C91.0763739,13.3377502 91.1219966,13.3703379 91.1519136,13.4156088 L90.9846432,13.6926504 L91.0604376,13.7109456 C91.4423079,13.7854421 91.8154314,13.8993061 92.1738312,14.0507136 Z" id="Path" fill="#000000" fill-rule="nonzero"></path>
                <path d="M92.6442792,25.35192 C92.6413126,25.3674613 92.6413126,25.3834235 92.6442792,25.3989648 C92.6433083,25.4128871 92.6433083,25.4268601 92.6442792,25.4407824 C92.6453824,25.4538271 92.6453824,25.4669417 92.6442792,25.4799864 L92.6442792,25.61328 C92.6453961,25.6271968 92.6453961,25.6411808 92.6442792,25.6550976 C92.6431623,25.6690144 92.6431623,25.6829984 92.6442792,25.6969152 L92.6181432,25.8066864 C92.620116,25.8161681 92.620116,25.8259543 92.6181432,25.835436 C92.6161704,25.8449177 92.6161704,25.8547039 92.6181432,25.8641856 L92.5815528,25.9739568 C92.5689167,25.9973565 92.5584197,26.0218496 92.5501896,26.0471376 C92.5501896,26.0732736 92.5292808,26.096796 92.5162128,26.122932 C92.5162128,26.122932 92.5162128,26.122932 92.5162128,26.122932 L92.469168,26.2065672 C92.4578105,26.2350658 92.4419243,26.2615428 92.4221232,26.2849752 C92.4039918,26.3062352 92.3890268,26.3300031 92.377692,26.3555424 C92.364624,26.3555424 92.3593968,26.3764512 92.3593968,26.3816784 L92.247012,26.5489488 L92.1999672,26.6142888 C92.188315,26.629138 92.1778293,26.6448665 92.168604,26.6613336 C92.1609644,26.677943 92.1503329,26.6930043 92.1372408,26.7057648 C92.1175288,26.7351988 92.0956905,26.7631517 92.0719008,26.7894 L91.9229256,26.9749656 C91.9098576,26.9749656 91.9046304,26.9958744 91.9046304,27.0037152 C91.8894435,27.0172996 91.8754527,27.0321648 91.8628128,27.0481464 C91.8482475,27.065801 91.8315699,27.0816007 91.8131544,27.0951912 L91.73736,27.18144 C91.717603,27.2116699 91.6917955,27.2374774 91.6615656,27.2572344 L91.5700896,27.3487104 L91.5230448,27.3853008 C91.4700789,27.4305812 91.411161,27.4683941 91.3479336,27.4976856 L91.293048,27.5159936 L91.227708,27.5159936 C91.1778882,27.5165863 91.1302399,27.4956211 91.097028,27.4584816 C90.9611208,27.3539376 90.835668,27.24678 90.704988,27.1343952 C90.574308,27.0220104 90.443628,26.9174664 90.3024936,26.8129224 C90.2615326,26.7757388 90.2178511,26.7416672 90.1718136,26.710992 C90.0437472,26.6116752 89.9104536,26.5228128 89.7928416,26.449632 C89.7928416,26.449632 89.7928416,26.449632 89.7928416,26.449632 C89.7668491,26.4300975 89.7498772,26.400868 89.7457968,26.3686104 C89.7516832,26.3277624 89.7678734,26.2890859 89.7928416,26.2562256 L91.21464,24.0686424 C91.21464,24.0686424 91.21464,24.0686424 91.21464,24.0503472 C91.242643,24.0019612 91.2983233,23.9767474 91.3531608,23.9876208 L91.371456,23.9876208 C91.3773045,23.9851176 91.3839027,23.9851176 91.3897512,23.9876208 L91.4550912,24.0137568 C91.4646219,24.0251251 91.4773826,24.0333283 91.4916816,24.0372792 C91.5059806,24.0412301 91.5187413,24.0494333 91.528272,24.0608016 L91.5648624,24.0790968 C91.579274,24.0854652 91.5918555,24.0953507 91.6014528,24.1078464 C91.628344,24.1196892 91.6537773,24.1345984 91.6772472,24.1522776 C91.7126247,24.1776353 91.7492619,24.2011878 91.7870184,24.2228448 C91.82685,24.2454081 91.8644765,24.2716592 91.8994032,24.3012528 L91.9359936,24.3300024 C91.9908792,24.37182 92.0431512,24.4162512 92.0928096,24.4580688 C92.142468,24.4998864 92.1921264,24.5469312 92.2417848,24.5965896 L92.351556,24.7272696 L92.4351912,24.8370408 C92.4745822,24.895764 92.5086924,24.957862 92.5371216,25.0226064 C92.5526901,25.0488849 92.5649785,25.0769728 92.573712,25.1062416 L92.6024616,25.1898768 C92.6044538,25.1958125 92.6044538,25.2022363 92.6024616,25.208172 C92.6001278,25.2167277 92.6001278,25.2257523 92.6024616,25.234308 C92.5986101,25.2470922 92.5986101,25.2607278 92.6024616,25.273512 C92.6079381,25.3033502 92.622551,25.3307494 92.6442792,25.35192 L92.6442792,25.35192 Z M90.7520328,13.5018743 C90.8859058,13.5027176 91.0179058,13.4703911 91.136232,13.407768 C91.7393571,12.7165954 92.4776135,12.1562321 93.30552,11.7612 C93.6597968,11.5927621 94.0326023,11.4664468 94.4163,11.3848416 C94.5305436,11.3622917 94.6332292,11.3003104 94.7064096,11.2097304 C94.7907886,11.0847084 94.8625774,10.9516365 94.9207248,10.8124632 C95.0133133,10.6018182 95.0918922,10.3852897 95.1559488,10.1642904 C95.2108344,9.9787248 95.20038,9.8689536 95.1245856,9.8323632 C95.0121088,9.79270844 94.8894536,9.79270844 94.7769768,9.8323632 C94.0413299,10.1546904 93.3472067,10.5644951 92.7096192,11.0529144 C91.8285416,11.7107593 91.0506868,12.4965424 90.4018104,13.3842456 C90.510487,13.4432999 90.6292862,13.4814221 90.7520328,13.4966304 L90.7520328,13.5018743 Z M95.4565128,25.6577112 C95.3950086,25.8614785 95.3024445,26.0545407 95.1820848,26.2300896 C95.0775408,26.3921328 94.9703832,26.541108 94.8632256,26.6796288 C94.7545453,26.8188728 94.6357397,26.9499085 94.507776,27.0716688 C94.4450944,27.1429679 94.3729933,27.2053969 94.2934608,27.2572344 C94.2451189,27.2886631 94.1922277,27.3124641 94.1366448,27.3278016 C94.1008445,27.3385549 94.0626739,27.3385549 94.0268736,27.3278016 C93.9970509,27.3158594 93.9689308,27.3000418 93.9432384,27.2807568 C93.7263096,27.1082592 93.5172216,26.933148 93.3107472,26.7580368 C93.0953639,26.5774142 92.8674055,26.4123408 92.6285976,26.2640664 C92.6050356,26.2366211 92.5896424,26.2031183 92.5841664,26.1673632 C92.5894631,26.1284033 92.6047716,26.0914826 92.6285976,26.0602056 L94.0347144,23.8961448 C94.0800168,23.8386456 94.1218344,23.8125096 94.1601672,23.8177368 C94.2081358,23.8225244 94.2540523,23.8396305 94.2934608,23.8673952 C94.4189136,23.940576 94.5417528,24.018984 94.6698192,24.1026192 C94.7941895,24.1857282 94.9105603,24.2802248 95.017428,24.384888 C95.1204309,24.4880765 95.2132102,24.6009872 95.2944696,24.7220424 C95.3746839,24.8443933 95.4305873,24.981046 95.4591264,25.1245368 C95.5089497,25.2968703 95.5098546,25.4796657 95.46174,25.652484 L95.4565128,25.6577112 Z" id="Shape" fill="#000000" fill-rule="nonzero"></path>
                <path d="M96.7972896,11.2933656 L97.74864,9.0273744 C97.827048,8.8418088 97.892388,8.7503328 97.9420464,8.7503328 C97.9917048,8.7503328 98.0465904,8.807832 98.0152272,8.925444 C97.9610775,9.1470045 97.9183325,9.37119767 97.8871608,9.5971392 C97.8375024,9.9133848 97.800912,10.1616768 97.774776,10.3420152 C97.7381856,10.6556472 97.7015952,11.0110968 97.6650048,11.4057504 C97.6284144,11.800404 97.5944376,12.205512 97.5630744,12.6210744 C97.5317112,13.0366368 97.500348,13.4443584 97.4715984,13.839012 C97.4428488,14.2336656 97.4062584,14.5865016 97.369668,14.9027472 C97.3002394,15.7005011 97.1478267,16.4888426 96.9149016,17.2549872 C96.7234896,17.8468698 96.4857892,18.4227689 96.2040024,18.9773496 C95.9426424,19.5000696 95.7126456,19.7797248 95.5453752,19.8032472 C95.5035576,19.8032472 95.5166256,19.693476 95.5819656,19.47132 C95.6764623,19.2157502 95.7524528,18.953714 95.8093488,18.68724 C95.879916,18.373608 95.945256,18.03384 96.0001416,17.6731632 C96.0550272,17.3124864 96.1046856,16.9439688 96.1465032,16.5649968 C96.1883208,16.1860248 96.2275248,15.825348 96.258888,15.48558 C96.2902512,15.145812 96.3399096,14.6858184 96.3686592,14.0481 C96.3974088,13.4103816 96.4470672,12.8693664 96.50718,12.4250544 C96.5594211,12.0378024 96.6567861,11.6579914 96.7972896,11.2933656 L96.7972896,11.2933656 Z" id="Path" fill="#000000" fill-rule="nonzero"></path>
                <path d="M99.5467968,20.5821 C98.8056504,20.5143525 98.0625818,20.6895699 97.4297808,21.0812976 C97.3698149,21.1333803 97.2806587,21.1333803 97.2206928,21.0812976 C97.1553528,21.0316392 97.173648,20.8905048 97.2703512,20.6552808 C97.4917436,20.2361841 97.7657768,19.8470921 98.0857944,19.497456 C98.4983551,19.0139564 98.992925,18.6069759 99.5467968,18.2952 C100.005415,18.9885209 100.005415,19.8887791 99.5467968,20.5821 L99.5467968,20.5821 Z" id="Path" fill="#000000" fill-rule="nonzero"></path>
                <path d="M101.608927,9.814068 C101.605195,9.83217281 101.605195,9.85084879 101.608927,9.8689536 C101.605961,9.8844949 101.605961,9.9004571 101.608927,9.9159984 C101.60781,9.92991523 101.60781,9.94389917 101.608927,9.957816 C101.610044,9.97173283 101.610044,9.98571677 101.608927,9.9996336 L101.608927,10.1277 C101.610044,10.1416168 101.610044,10.1556008 101.608927,10.1695176 C101.60781,10.1834344 101.60781,10.1974184 101.608927,10.2113352 L101.582791,10.32372 C101.584551,10.3323431 101.584551,10.3412329 101.582791,10.349856 C101.581077,10.3593626 101.581077,10.369099 101.582791,10.3786056 L101.546201,10.4883768 C101.533535,10.5126689 101.52304,10.5380322 101.514838,10.5641712 C101.514838,10.5876936 101.493929,10.6138296 101.480861,10.637352 C101.480861,10.637352 101.480861,10.637352 101.480861,10.6530336 L101.433816,10.7340552 C101.422895,10.7635594 101.406981,10.7909659 101.386771,10.8150768 C101.368704,10.8354231 101.353733,10.8583202 101.34234,10.8830304 C101.329272,10.8960984 101.324045,10.9039392 101.324045,10.91178 L101.21166,11.0764368 L101.167229,11.1417768 C101.153847,11.1558659 101.14242,11.1716891 101.133252,11.1888216 C101.124948,11.205835 101.1144,11.2216577 101.101889,11.2358664 C101.08228,11.264555 101.060432,11.2916468 101.036549,11.316888 L100.887574,11.5024536 C100.879441,11.5105797 100.873195,11.5203946 100.869278,11.5312032 L100.827461,11.578248 C100.813565,11.5957839 100.79677,11.6108114 100.777802,11.6226792 L100.722917,11.6801784 C100.702882,11.7094642 100.677093,11.7343636 100.647122,11.7533592 L100.555646,11.8448352 L100.508602,11.8814256 C100.457017,11.9285332 100.397804,11.9665354 100.33349,11.9938104 L100.278605,12.0121056 L100.213265,12.0121056 C100.1641,12.0121056 100.117,11.992331 100.082585,11.95722 C99.9466776,11.852676 99.8212248,11.7429048 99.6905448,11.6331336 C99.5598648,11.5233624 99.4291848,11.4135912 99.2880504,11.3090472 C99.2436192,11.2724568 99.2018016,11.23848 99.1573704,11.2071168 C99.029304,11.1078 98.8960104,11.0189376 98.7783984,10.9457568 C98.7526783,10.924853 98.7358619,10.8949571 98.7313536,10.8621216 C98.7379629,10.821477 98.7540824,10.7829693 98.7783984,10.7497368 L100.192356,8.5961304 C100.189546,8.59035561 100.189546,8.58360999 100.192356,8.5778352 C100.218984,8.5278028 100.275332,8.50122375 100.330877,8.5124952 L100.349172,8.5124952 C100.355156,8.51082244 100.361484,8.51082244 100.367467,8.5124952 L100.432807,8.5412448 C100.443151,8.55104758 100.455701,8.55821884 100.469398,8.5621536 C100.482717,8.56809291 100.495055,8.5760245 100.505988,8.585676 L100.542578,8.6039712 C100.556429,8.6112395 100.56883,8.62098352 100.579169,8.6327208 C100.605569,8.6464951 100.630904,8.66222037 100.654963,8.6797656 L100.764734,8.7477192 C100.801325,8.7712416 100.840529,8.7973776 100.877119,8.8261272 L100.91371,8.8548768 C101.021879,8.93442083 101.124082,9.02177411 101.219501,9.1162368 L101.329272,9.2443032 L101.412907,9.356688 C101.454731,9.41295685 101.489,9.47446466 101.514838,9.53964 C101.529924,9.56616276 101.542188,9.59419444 101.551428,9.6232752 L101.580178,9.7069104 C101.58185,9.71289409 101.58185,9.71922191 101.580178,9.7252056 C101.577623,9.73461857 101.577623,9.74454223 101.580178,9.7539552 C101.57599,9.77806939 101.587527,9.80219133 101.608927,9.814068 L101.608927,9.814068 Z M105.267967,18.5095152 C105.096006,18.4747845 104.919816,18.465975 104.745247,18.4833792 C104.314288,18.5908936 103.92718,18.8291843 103.637081,19.1655288 C103.250307,19.565803 102.82384,19.9257168 102.364258,20.2397184 C102.010513,20.5235761 101.592153,20.7156985 101.14632,20.7990288 C100.857397,20.8292835 100.565522,20.8142929 100.281218,20.7545976 L99.5703192,20.5821 C99.369819,20.2320135 99.2585199,19.8379788 99.2462156,19.4347296 C99.2446506,19.0337103 99.3521599,18.6398107 99.5572512,18.2952 C99.9336842,18.0732806 100.355386,17.9392652 100.79087,17.90316 C101.093368,17.8955703 101.394157,17.9507446 101.674267,18.0652032 C101.916615,18.1715327 102.178028,18.2275498 102.442666,18.22986 C102.735224,18.2510143 103.028844,18.2072837 103.30254,18.1017936 C103.518172,17.9864898 103.717655,17.8432489 103.895827,17.6757768 C104.005598,17.5843008 104.112756,17.4875976 104.214686,17.3856672 C104.316617,17.2837368 104.457751,17.1556704 104.640703,17.001468 C104.8159,16.8502147 105.027659,16.7474889 105.254899,16.7035176 C105.297172,16.9037887 105.34951,17.1018022 105.411715,17.2968048 C105.449266,17.4323819 105.471188,17.5718085 105.477055,17.7123672 C105.464769,17.9143283 105.414214,18.1121146 105.32808,18.2952 C105.321296,18.3714881 105.296191,18.44501 105.254899,18.5095152 L105.267967,18.5095152 Z M104.439456,9.6389568 C104.487848,9.80983675 104.487848,9.99079685 104.439456,10.1616768 C104.382523,10.3648605 104.29435,10.5579588 104.178096,10.7340552 C104.073552,10.8960984 103.966394,11.0450736 103.859237,11.1835944 C103.7495,11.3284312 103.628928,11.4647299 103.49856,11.591316 C103.436008,11.6620011 103.36387,11.7235825 103.284245,11.774268 C103.236474,11.8067309 103.183407,11.8306113 103.127429,11.8448352 C103.091628,11.8555885 103.053458,11.8555885 103.017658,11.8448352 C102.987361,11.8339049 102.959096,11.8180059 102.934022,11.7977904 C102.717094,11.6252928 102.508006,11.4527952 102.301531,11.2750704 C102.086148,11.0944478 101.858189,10.9293744 101.619382,10.7811 C101.596478,10.7532373 101.581172,10.7199239 101.57495,10.6843968 C101.581956,10.6459196 101.597105,10.6093843 101.619382,10.5772392 L103.025498,8.4131784 C103.069058,8.3574216 103.110876,8.3312856 103.150951,8.3347704 C103.198716,8.3404197 103.244427,8.35744936 103.284245,8.3844288 C103.409698,8.4602232 103.532537,8.5386312 103.660603,8.6222664 C103.784974,8.7053754 103.901344,8.79987198 104.008212,8.9045352 C104.110042,9.00619244 104.201935,9.11733904 104.28264,9.2364624 C104.360566,9.35916446 104.413831,9.49587779 104.439456,9.6389568 L104.439456,9.6389568 Z" id="Shape" fill="#000000" fill-rule="nonzero"></path>
                <path d="M109.648361,15.94296 C109.529078,16.0699404 109.399719,16.1870632 109.261548,16.2931824 L108.890417,16.5153384 L108.482695,16.6826088 L108.260539,16.8498792 C108.187358,16.9038936 108.119405,16.9587792 108.056678,17.014536 C107.950015,17.091834 107.83182,17.1518135 107.706456,17.1922608 L107.51305,17.2471464 C107.465823,17.2629974 107.42411,17.2920152 107.392824,17.3307816 C107.234221,17.4879755 107.049358,17.6162303 106.846582,17.7097536 L106.47545,17.8195248 C106.280664,17.8951024 106.102944,18.008843 105.95273,18.1540656 C105.793301,18.2873592 105.675689,18.3814488 105.602508,18.4311072 C105.497847,18.4898028 105.380115,18.521258 105.260126,18.5225832 C105.091146,18.2501159 105.000701,17.9362714 104.998766,17.615664 C105.011242,17.2966666 105.100927,16.9854586 105.260126,16.7087448 L105.853414,16.8498792 C106.072956,16.909992 106.295112,16.7976072 106.517268,16.5101112 C106.631451,16.3414272 106.758131,16.1815488 106.89624,16.0318224 C106.964194,15.982164 107.016466,15.9900048 107.053056,16.0579584 C107.074588,16.0978144 107.10729,16.1305158 107.147146,16.152048 C107.343166,16.243524 107.515663,16.152048 107.669866,15.890688 C107.824068,15.629328 107.931226,15.4829664 107.975657,15.4829664 C108.026739,15.4889385 108.074924,15.509849 108.114178,15.5430792 C108.176638,15.5841612 108.2537,15.5965293 108.325879,15.577056 C108.447108,15.5310471 108.549926,15.4465897 108.618602,15.3366048 C108.704462,15.2252488 108.781368,15.107268 108.848599,14.9837688 C108.880708,14.9089101 108.933241,14.8446021 109.000188,14.7982032 C109.089033,14.8718195 109.201057,14.9116299 109.316434,14.910588 C109.434896,14.8860012 109.547563,14.8389829 109.648361,14.7720672 L109.760746,15.0961536 C109.784352,15.1681715 109.799268,15.2427522 109.805177,15.3183096 C109.802786,15.4293591 109.79406,15.5401817 109.779041,15.6502368 C109.747861,15.7528802 109.70396,15.8512185 109.648361,15.94296 L109.648361,15.94296 Z" id="Path" fill="#000000" fill-rule="nonzero"></path>
                <path d="M109.658815,15.94296 C109.587713,15.7554652 109.541153,15.5595633 109.520294,15.3601272 C109.503972,15.1561124 109.552448,14.9521497 109.658815,14.7772944 C109.726769,14.7197952 109.79995,14.6518416 109.880971,14.5682064 C109.961993,14.4845712 110.037787,14.400936 110.110968,14.3068464 C110.182145,14.224261 110.247636,14.1369404 110.306988,14.0454864 C110.353222,13.9776969 110.387683,13.90259 110.408918,13.8233304 C110.428257,13.7146957 110.435271,13.6042251 110.429827,13.4940168 L110.429827,13.1281128 C110.429827,13.0061448 110.429827,12.8859192 110.429827,12.767436 C110.430876,12.6601312 110.451239,12.5538921 110.48994,12.453804 C110.539508,12.317674 110.598006,12.1849632 110.665051,12.0565368 L111.60072,10.1277 C111.632083,10.0597464 111.66606,10.0466784 111.707878,10.0832688 C111.749516,10.1244759 111.771415,10.1816038 111.76799,10.2400848 C111.723559,10.4481117 111.699055,10.6598995 111.69481,10.872576 C111.69481,11.0921184 111.689582,11.3116608 111.679128,11.5312032 C111.679128,11.748132 111.679128,11.9676744 111.655606,12.1819896 C111.645313,12.3943897 111.614681,12.6053137 111.56413,12.8118672 C111.510392,13.1059076 111.422684,13.3927116 111.30277,13.6665144 C111.173316,13.9681441 111.020386,14.2591474 110.84539,14.5368432 C110.675427,14.8108486 110.486801,15.072828 110.280852,15.3209232 C110.108473,15.5341897 109.914951,15.7294624 109.703246,15.903756 L109.658815,15.94296 Z M112.58082,4.129488 C112.631711,4.31067678 112.631711,4.50238242 112.58082,4.6835712 C112.516122,4.8983519 112.417285,5.10132238 112.288097,5.2846992 C112.209744,5.41851505 112.122424,5.54687474 112.026737,5.6688984 C111.930034,5.7838968 111.830717,5.893668 111.726173,5.998212 C111.680618,6.04861076 111.630772,6.09495845 111.577198,6.1367328 C111.509244,6.1924896 111.438677,6.2447616 111.365496,6.2935488 C111.29879,6.33803813 111.226796,6.37403509 111.151181,6.4007064 C111.083227,6.4216152 111.033569,6.4007064 111.004819,6.377184 C110.782663,6.1968456 110.563121,6.0165072 110.346192,5.8309416 C110.123724,5.63779793 109.885981,5.46298663 109.635293,5.3082216 C109.590862,5.2768584 109.572566,5.2481088 109.57518,5.2193592 C109.583754,5.17480769 109.600597,5.13225638 109.624838,5.0939064 L111.104136,2.8383696 C111.148567,2.7756432 111.190385,2.7468936 111.234816,2.7495072 C111.284574,2.75532143 111.332142,2.77327153 111.373337,2.8017792 C111.507496,2.88223598 111.637473,2.96946882 111.762763,3.0631392 C111.888691,3.14876159 112.009151,3.24216162 112.12344,3.3427944 C112.232739,3.44945849 112.330022,3.56777639 112.41355,3.6956304 C112.493659,3.82494463 112.550287,3.96739823 112.58082,4.11642 L112.58082,4.129488 Z" id="Shape" fill="#000000" fill-rule="nonzero"></path>
                <path d="M113.95296,11.2933656 L114.914765,9.0273744 C114.993173,8.8418088 115.058513,8.7503328 115.108171,8.7503328 C115.15783,8.7503328 115.212715,8.807832 115.181352,8.925444 C115.127202,9.1470045 115.084457,9.37119767 115.053286,9.5971392 C115.003627,9.9133848 114.967037,10.1616768 114.940901,10.3420152 C114.90431,10.6556472 114.86772,11.0110968 114.83113,11.4057504 C114.794539,11.800404 114.760562,12.205512 114.729199,12.6210744 C114.697836,13.0366368 114.666473,13.4443584 114.637723,13.839012 C114.608974,14.2336656 114.572383,14.5865016 114.535793,14.9027472 C114.466364,15.7005011 114.313951,16.4888426 114.081026,17.2549872 C113.888476,17.8464508 113.650811,18.4222628 113.370127,18.9773496 C113.108767,19.5000696 112.87877,19.7797248 112.7115,19.8032472 C112.669682,19.8032472 112.680137,19.693476 112.74809,19.47132 C112.842587,19.2157502 112.918578,18.953714 112.975474,18.68724 C113.046041,18.373608 113.111381,18.03384 113.166266,17.6731632 C113.221152,17.3124864 113.27081,16.9439688 113.312628,16.5649968 C113.354446,16.1860248 113.39365,15.825348 113.425013,15.48558 C113.456376,15.145812 113.506034,14.6858184 113.534784,14.0481 C113.563534,13.4103816 113.613192,12.8693664 113.673305,12.4250544 C113.722172,12.0382284 113.816025,11.6584288 113.95296,11.2933656 L113.95296,11.2933656 Z" id="Path" fill="#000000" fill-rule="nonzero"></path>
                <path d="M119.60095,17.0380584 C119.343526,17.7042914 119.032354,18.3484886 118.670508,18.9642816 C118.497011,19.256605 118.280237,19.5209633 118.027562,19.7483616 C117.794461,19.9149415 117.537038,20.0445344 117.264391,20.1325608 C116.921737,20.2548939 116.572753,20.3587165 116.218951,20.4435792 C115.950069,20.5172744 115.674067,20.5619604 115.395667,20.5768728 C115.322486,20.5768728 115.285896,20.5768728 115.285896,20.5768728 C115.236238,20.5141464 115.489757,20.3155128 116.049067,19.954836 C116.527161,19.6597396 116.988718,19.3386562 117.431662,18.9930312 C117.785339,18.7074002 118.108531,18.3859602 118.39608,18.03384 C118.66822,17.7153869 118.877518,17.3482273 119.01289,16.9518096 C118.928059,16.9870807 118.840692,17.0159118 118.75153,17.0380584 C118.650341,17.0668585 118.547298,17.0886896 118.443125,17.1033984 C118.333354,17.11908 118.231423,17.1295344 118.132106,17.1347616 C118.045342,17.1458908 117.957511,17.1458908 117.870746,17.1347616 C117.546675,17.1206166 117.237414,16.995066 116.99519,16.779312 C116.771842,16.5818599 116.651424,16.2928566 116.66849,15.995232 C116.693548,15.8103165 116.736437,15.6282589 116.796557,15.4516032 C116.919848,15.111978 117.062077,14.7795295 117.222574,14.4558216 C117.408038,14.0515902 117.646203,13.6736912 117.930859,13.3319736 C118.098494,13.0864706 118.362719,12.9239439 118.65744,12.8850191 C119.035544,12.8823882 119.391343,13.0636991 119.611404,13.3711776 C119.87025,13.7106209 120.027083,14.1167556 120.063557,14.5420704 C120.076165,14.7703335 120.071797,14.9992178 120.050489,15.2268336 C120.034812,15.4174832 120.006876,15.6069255 119.966854,15.7939848 C119.932877,15.9455736 119.883218,16.1415936 119.815265,16.3768176 C119.747311,16.6120416 119.679358,16.8368112 119.60095,17.0380584 Z" id="Path" fill="#000000" fill-rule="nonzero"></path>
                <path d="M119.284704,16.20432 C119.25244,15.9588179 119.206191,15.7153572 119.146183,15.4751256 C119.128644,15.3495657 119.119911,15.2229325 119.120046,15.0961536 C119.120046,14.8739976 119.331749,14.6858184 119.757766,14.531616 C120.058225,14.412368 120.33991,14.2503991 120.594118,14.0507136 C120.769898,13.9247359 120.893534,13.7388175 120.941726,13.5279936 C120.971677,13.4022705 120.981382,13.2725748 120.970476,13.1437944 C120.956537,13.0235688 120.940855,12.8902752 120.923431,12.7439136 C120.90509,12.6008837 120.895489,12.4568684 120.894682,12.3126696 C120.891956,12.2056308 120.901603,12.0986353 120.923431,11.9938104 C120.940855,11.8805544 121.230965,11.0137104 121.79376,9.3932784 C121.847774,9.3079008 121.900046,9.3079008 121.950576,9.3932784 C121.987965,9.50061436 122.003083,9.61444497 121.995007,9.7278192 L121.968871,11.918016 C121.952984,12.69251 121.768354,13.4542184 121.427856,14.1500304 C121.170968,14.7155836 120.844346,15.2467831 120.455597,15.7312584 C120.250715,15.9823976 120.023252,16.2142348 119.776061,16.4238624 C119.491178,16.7897664 119.329135,16.72704 119.284704,16.20432 Z M122.115233,3.2068872 C122.111499,3.22587175 122.111499,3.24540185 122.115233,3.2643864 C122.112276,3.27904922 122.112276,3.29415478 122.115233,3.3088176 C122.114116,3.32273443 122.114116,3.33671837 122.115233,3.3506352 C122.11635,3.36455203 122.11635,3.37853597 122.115233,3.3924528 L122.115233,3.5231328 C122.116204,3.5370551 122.116204,3.5510281 122.115233,3.5649504 C122.11413,3.57799512 122.11413,3.59110968 122.115233,3.6041544 L122.089097,3.7165392 C122.090811,3.72604578 122.090811,3.73578222 122.089097,3.7452888 C122.087091,3.7538853 122.087091,3.7628283 122.089097,3.7714248 L122.052506,3.8838096 C122.03987,3.90720931 122.029373,3.93170239 122.021143,3.9569904 C122.021143,3.9805128 122.000234,4.0066488 121.987166,4.0301712 C121.98862,4.03529741 121.98862,4.04072659 121.987166,4.0458528 C121.987166,4.0458528 121.987166,4.0458528 121.987166,4.0589208 L121.940122,4.142556 C121.929782,4.17154714 121.913792,4.19819797 121.893077,4.220964 C121.87501,4.24131034 121.860039,4.26420736 121.848646,4.2889176 C121.839507,4.29618811 121.833066,4.3063094 121.83035,4.3176672 L121.717966,4.4849376 L121.673534,4.5502776 C121.659595,4.56289294 121.64808,4.57795101 121.639558,4.5947088 C121.631254,4.61172221 121.620705,4.62754489 121.608194,4.6417536 C121.588482,4.67118757 121.566644,4.69914052 121.542854,4.7253888 L121.393879,4.9109544 C121.385438,4.9177663 121.379095,4.92682711 121.375584,4.9370904 L121.333766,4.9841352 C121.319201,5.00178978 121.302524,5.01758954 121.284108,5.03118 L121.229222,5.0860656 C121.210806,5.11667915 121.184669,5.14191555 121.153428,5.1592464 L121.061952,5.2507224 L121.014907,5.2899264 C120.962651,5.33546893 120.903559,5.37251168 120.839796,5.3996976 L120.78491,5.4179928 L120.71957,5.4179928 C120.670405,5.4179928 120.623306,5.39821823 120.58889,5.3631072 C120.455597,5.2585632 120.32753,5.1514056 120.19685,5.0390208 C120.06617,4.926636 119.93549,4.8194784 119.794356,4.7149344 C119.752587,4.67872221 119.708968,4.64469976 119.663676,4.613004 C119.53561,4.5163008 119.402316,4.4248248 119.284704,4.351644 C119.284704,4.351644 119.284704,4.351644 119.284704,4.351644 C119.258559,4.33110157 119.241638,4.30102002 119.237659,4.2680088 C119.244659,4.22827795 119.260761,4.19070677 119.284704,4.1582376 L120.698662,2.0020176 C120.696193,1.99616905 120.696193,1.98957095 120.698662,1.9837224 C120.726999,1.93552179 120.781964,1.90959461 120.837182,1.9183824 L120.855478,1.9183824 C120.861413,1.91639023 120.867837,1.91639023 120.873773,1.9183824 L120.939113,1.947132 C120.948644,1.95850026 120.961404,1.96670354 120.975703,1.9706544 C120.990002,1.97460526 121.002763,1.98280854 121.012294,1.9941768 L121.048884,2.012472 C121.063103,2.0193207 121.076297,2.02811729 121.088088,2.038608 L121.161269,2.0856528 L121.27104,2.15622 C121.311275,2.17813729 121.348965,2.20443281 121.383425,2.234628 L121.420015,2.260764 C121.527586,2.3410601 121.629738,2.42836994 121.725806,2.522124 L121.835578,2.6501904 L121.919213,2.7625752 C121.961084,2.81975401 121.995348,2.88213148 122.021143,2.9481408 C122.037225,2.97415315 122.049544,3.00231083 122.057734,3.031776 L122.086483,3.1127976 C122.088681,3.11959394 122.088681,3.12691006 122.086483,3.1337064 C122.084477,3.1423029 122.084477,3.1512459 122.086483,3.1598424 C122.089799,3.17651825 122.100325,3.19087169 122.115233,3.1990464 L122.115233,3.2068872 Z M124.948375,3.031776 C124.995565,3.20282082 124.995565,3.38345118 124.948375,3.554496 C124.886809,3.75905354 124.794259,3.95296828 124.673947,4.129488 C124.569403,4.2889176 124.464859,4.4378928 124.355088,4.5764136 C124.24596,4.71607636 124.125311,4.84634161 123.994411,4.96584 C123.931321,5.03573792 123.860271,5.09801628 123.78271,5.1514056 C123.734248,5.18552616 123.680336,5.21115637 123.62328,5.2272 C123.587666,5.239153 123.549123,5.239153 123.513509,5.2272 C123.483347,5.21715966 123.455078,5.20214179 123.429874,5.1827688 C123.212945,5.0102712 123.003857,4.83516 122.797382,4.6600488 C122.582056,4.47856206 122.354098,4.31261562 122.115233,4.1634648 C122.091902,4.13587178 122.07654,4.1024373 122.070802,4.0667616 C122.077768,4.02907762 122.092937,3.99338675 122.115233,3.9622176 L123.52135,1.7955432 C123.56491,1.7397864 123.606727,1.7136504 123.646802,1.7171352 C123.695757,1.72294312 123.74248,1.7409133 123.78271,1.7694072 C123.905549,1.842588 124.028388,1.920996 124.156454,2.0046312 C124.280825,2.0877402 124.397196,2.18223678 124.504063,2.2869 C124.606542,2.38678623 124.699306,2.49617712 124.781105,2.6136 C124.862414,2.73851481 124.919183,2.87777544 124.948375,3.0239352 L124.948375,3.031776 Z" id="Shape" fill="#000000" fill-rule="nonzero"></path>
                <path d="M123.388056,20.5821 C122.64695,20.5149262 121.904061,20.6901013 121.27104,21.0812976 C121.211925,21.1329995 121.123681,21.1329995 121.064566,21.0812976 C120.999226,21.0316392 121.014907,20.8905048 121.114224,20.6552808 C121.33446,20.2361193 121.60764,19.846992 121.927054,19.497456 C122.339768,19.0141125 122.834308,18.6071563 123.388056,18.2952 C123.841877,18.9899567 123.841877,19.8873433 123.388056,20.5821 Z" id="Path" fill="#000000" fill-rule="nonzero"></path>
                <path d="M127.54368,15.328764 C127.478758,15.3762366 127.419943,15.4315402 127.368569,15.4934208 C127.340782,15.5330051 127.310212,15.5705616 127.277093,15.6058056 C127.606254,15.6670243 127.940729,15.6950432 128.275488,15.6894408 C128.742103,15.7024716 129.208475,15.6559223 129.66331,15.55092 C129.812389,15.5170772 129.95907,15.4734221 130.102394,15.42024 C130.209552,15.3758088 130.293187,15.3470592 130.348073,15.328764 C130.557161,15.2712648 130.661705,15.3653544 130.661705,15.6058056 C130.584669,15.9009704 130.46021,16.1816657 130.293187,16.4369304 C130.162507,16.5859056 130.031827,16.7296536 129.890693,16.8681744 C129.749558,17.0066952 129.629333,17.1478296 129.496039,17.288964 L128.136967,18.935532 C127.772033,19.3772835 127.358183,19.7762281 126.903348,20.12472 C126.311615,20.577895 125.59386,20.8363235 124.849058,20.8643688 C124.621771,20.8547312 124.396367,20.8187719 124.177363,20.7572112 C123.897708,20.686644 123.636348,20.6291448 123.393283,20.5873272 C123.309227,20.4645564 123.246491,20.3284811 123.207718,20.1848328 C123.1503,19.9951774 123.114356,19.7996755 123.10056,19.602 C123.089955,19.3772465 123.103978,19.1520074 123.142378,18.9303048 C123.181269,18.7092643 123.264868,18.4984879 123.388056,18.3108816 C123.739878,18.1175558 124.129671,18.003383 124.530199,17.9763408 C124.891628,17.9572435 125.253855,17.9933781 125.604389,18.0834984 C125.868158,18.1601719 126.140174,18.2049229 126.414605,18.216792 C126.620113,18.214365 126.824579,18.1871614 127.023574,18.1357704 C127.275826,18.0855443 127.515104,17.9841402 127.726632,17.83782 C128.001523,17.6806389 128.259079,17.4949183 128.49503,17.2837368 C128.75639,17.0746488 128.884457,16.896924 128.884457,16.7610168 L127.690042,16.7610168 C127.26186,16.783916 126.832577,16.7469695 126.414605,16.6512456 C126.330998,16.6386215 126.256813,16.5907681 126.210837,16.5198059 C126.164862,16.4488436 126.151506,16.361579 126.174154,16.2801144 C126.254804,16.1108419 126.347385,15.947516 126.451195,15.7913712 C126.764101,15.3212642 127.123066,14.8835021 127.522771,14.4845712 L127.616861,14.6988864 C127.648331,14.7777881 127.663447,14.8622597 127.661292,14.9471784 C127.660968,15.0159463 127.65219,15.0844136 127.635156,15.1510392 C127.607861,15.2118725 127.577325,15.2711992 127.54368,15.328764 L127.54368,15.328764 Z M126.213358,25.8929352 L126.184608,25.7988456 L126.155858,25.717824 C126.150472,25.6981184 126.143479,25.6788876 126.13495,25.6603248 C126.124578,25.6414562 126.113237,25.6231366 126.100973,25.6054392 C126.054846,25.5125185 125.99876,25.4248843 125.933702,25.3440792 L125.878817,25.2787392 L125.722001,25.1114688 L125.51814,24.946812 L125.48155,24.9180624 C125.444959,24.8866992 125.408369,24.8605632 125.371778,24.8344272 L125.259394,24.7612464 L125.186213,24.7142016 L125.037238,24.6305664 L125.000647,24.6122712 L124.971898,24.593976 L124.953602,24.593976 C124.916617,24.5777999 124.873571,24.5849743 124.843831,24.6122712 L124.815082,24.6384072 L124.788946,24.6776112 L123.36192,26.8259904 C123.337222,26.8599842 123.321085,26.8994316 123.314875,26.9409888 C123.319271,26.9779068 123.340499,27.0107143 123.372374,27.0298512 L123.565781,27.155304 C123.625894,27.194508 123.68862,27.2389392 123.751346,27.2885976 L123.814073,27.3434832 C123.908162,27.4114368 123.999638,27.4846176 124.093728,27.5630256 L124.355088,27.7877952 L124.449178,27.8635896 C124.49707,27.9113769 124.549601,27.9542773 124.605994,27.991656 L124.671334,28.0465416 C124.703525,28.0835607 124.750345,28.1045818 124.7994,28.1040408 C124.840381,28.1083447 124.88178,28.1020448 124.919626,28.0857456 L124.953602,28.070064 C124.965592,28.0645123 124.976279,28.0564976 124.984966,28.0465416 C125.081997,27.9934216 125.170171,27.9255271 125.246326,27.8452944 C125.267618,27.8221441 125.290312,27.8003231 125.314279,27.7799544 C125.336289,27.7600747 125.356412,27.7382015 125.374392,27.7146144 L125.486777,27.5943888 L125.549503,27.5107536 L125.633138,27.4088232 C125.646503,27.3956895 125.657942,27.3807308 125.667115,27.364392 C125.673769,27.346485 125.684508,27.3303767 125.698478,27.3173472 C125.722268,27.2910989 125.744106,27.263146 125.763818,27.233712 L125.813477,27.1631448 C125.828932,27.141462 125.842903,27.1187591 125.855294,27.0951912 L125.889271,27.0429192 C125.898002,27.0277668 125.908533,27.0137257 125.920634,27.0011016 L126.030406,26.8259904 L126.07745,26.7345144 L126.1062,26.6796288 L126.124495,26.6221296 C126.141823,26.5869217 126.155823,26.5501715 126.166313,26.5123584 C126.174667,26.4743422 126.185138,26.4368221 126.197676,26.3999736 L126.215971,26.345088 L126.234266,26.2065672 L126.234266,26.0680464 C126.234266,26.0680464 126.234266,26.0471376 126.234266,26.044524 C126.234266,26.0419104 126.234266,26.044524 126.234266,26.0210016 L126.213358,25.8929352 Z M127.44175,29.3062968 C127.413722,29.1626525 127.35778,29.0259041 127.277093,28.9038024 C127.195833,28.7827472 127.103054,28.6698365 127.000051,28.566648 C126.893184,28.4619848 126.776813,28.3674882 126.652442,28.2843792 C126.524376,28.200744 126.391082,28.122336 126.276084,28.0465416 C126.236085,28.0199144 126.190461,28.0029171 126.14279,27.9968832 C126.104458,27.9968832 126.06264,28.0230192 126.017338,28.0752912 L124.611221,30.239352 C124.588944,30.2714971 124.573795,30.3080324 124.56679,30.3465096 C124.573011,30.3820367 124.588318,30.4153501 124.611221,30.4432128 C124.850272,30.5908615 125.07747,30.7568908 125.290757,30.9397968 C125.497231,31.114908 125.708933,31.2874056 125.925862,31.4625168 C125.951666,31.4809388 125.979787,31.495878 126.009497,31.506948 C126.045111,31.518901 126.083654,31.518901 126.119268,31.506948 C126.175246,31.4927241 126.228314,31.4688437 126.276084,31.4363808 C126.355709,31.3856953 126.427847,31.3241139 126.490399,31.2534288 C126.617767,31.1301598 126.736529,30.9982991 126.845849,30.8587752 C126.953006,30.7202544 127.060164,30.5712792 127.164708,30.4118496 C127.28502,30.2353299 127.37757,30.0414151 127.439136,29.8368576 C127.485615,29.66254 127.481992,29.4786481 127.428682,29.3062968 L127.44175,29.3062968 Z M129.043886,25.717824 C129.01493,25.5740289 128.958105,25.437293 128.876616,25.3153296 C128.713168,25.0674165 128.500562,24.8557001 128.251966,24.6932928 C128.126513,24.6122712 127.990606,24.5312496 127.878221,24.4580688 C127.83784,24.4303028 127.791083,24.4132187 127.742314,24.4084104 C127.70311,24.4084104 127.661292,24.4319328 127.619474,24.4868184 L126.20029,26.65872 C126.176022,26.6900197 126.159862,26.7268291 126.153245,26.7658776 C126.160109,26.8017016 126.176342,26.8350677 126.20029,26.8625808 C126.438264,27.0108635 126.665352,27.1759396 126.879826,27.3565512 C127.0863,27.5316624 127.298002,27.7067736 127.512317,27.8792712 C127.538358,27.8980153 127.56641,27.9137946 127.595952,27.926316 C127.632633,27.9371347 127.671656,27.9371347 127.708337,27.926316 C127.763555,27.9099814 127.816307,27.8862433 127.865153,27.8557488 C127.943764,27.8037212 128.014976,27.7413002 128.076854,27.6701832 C128.205511,27.5491016 128.324367,27.418011 128.432304,27.2781432 C128.542075,27.1396224 128.646619,26.9906472 128.753777,26.828604 C128.869271,26.6520875 128.957388,26.45911 129.015137,26.2562256 C129.071681,26.0819399 129.077122,25.8951053 129.030818,25.717824 L129.043886,25.717824 Z" id="Shape" fill="#000000" fill-rule="nonzero"></path>
                <path d="M127.54368,15.328764 C127.491079,15.1945817 127.456794,15.0539248 127.44175,14.910588 C127.421912,14.7525931 127.457971,14.5926363 127.54368,14.4584352 C127.778904,14.2127568 128.170944,13.8546936 128.725027,13.3842456 C129.336533,12.8727099 129.985667,12.407919 130.666932,11.9938104 C131.366759,11.5571924 132.092991,11.1643984 132.841447,10.8176904 C133.518901,10.509838 134.164875,10.1369586 134.770284,9.7042968 C134.838238,9.6467976 134.89051,9.6285024 134.9271,9.6467976 C134.96369,9.6650928 134.966304,9.709524 134.9271,9.7774776 C134.75983,10.0780416 134.579491,10.375992 134.388698,10.6687152 C134.182773,10.9831262 133.953896,11.2818901 133.703935,11.5625664 C133.538438,11.7544409 133.345575,11.920885 133.131557,12.0565368 C132.932923,12.1767624 132.666336,12.3178968 132.326568,12.506076 C131.424005,12.950388 130.502275,13.4173512 129.561379,13.9069656 C128.812226,14.2616353 128.129699,14.7425872 127.54368,15.328764 L127.54368,15.328764 Z M134.720626,2.5064424 C134.77046,2.68777515 134.77046,2.87919285 134.720626,3.0605256 C134.657253,3.27582202 134.558313,3.47900151 134.427902,3.6616536 C134.351054,3.79641425 134.263661,3.92488171 134.166542,4.0458528 C134.069839,4.1608512 133.970522,4.2706224 133.865978,4.3751664 C133.820423,4.42556516 133.770578,4.47191285 133.717003,4.5136872 C133.64905,4.569444 133.578482,4.621716 133.505302,4.6705032 C133.43949,4.71651516 133.367283,4.75261909 133.290986,4.7776608 C133.223033,4.7985696 133.175988,4.7776608 133.144625,4.7541384 C132.922469,4.5738 132.702926,4.3934616 132.488611,4.207896 C132.264744,4.01534747 132.026181,3.84057612 131.775098,3.685176 C131.730667,3.6538128 131.712372,3.6250632 131.714986,3.5963136 C131.725246,3.55227105 131.74198,3.50999356 131.764644,3.4708608 L133.246555,1.215324 C133.288373,1.1525976 133.332804,1.123848 133.374622,1.1264616 C133.424484,1.13184159 133.472156,1.14983085 133.513142,1.1787336 C133.647689,1.25857813 133.777698,1.34583245 133.902569,1.4400936 C134.030135,1.53112957 134.150698,1.631599 134.263246,1.7406576 C134.36783,1.84717408 134.460707,1.96458431 134.540287,2.09088 C134.622343,2.21880848 134.683237,2.35912975 134.720626,2.5064424 L134.720626,2.5064424 Z" id="Shape" fill="#000000" fill-rule="nonzero"></path>
                <path d="M140.703156,2.0333808 C141.006161,2.06445093 141.311098,2.07231464 141.615302,2.0569032 C141.917988,2.04036508 142.217405,1.98592576 142.50654,1.89486 C142.829568,1.79376945 143.139986,1.65609805 143.431754,1.4845248 C143.790015,1.27043471 144.127733,1.0237081 144.440604,0.7474896 C144.523625,0.678479283 144.60219,0.604278676 144.675828,0.5253336 L144.916279,0.2770416 C144.982446,0.207211444 145.052238,0.140908713 145.125367,0.078408 C145.188094,0.026136 145.229911,0 145.256047,0 C145.282183,0 145.34491,0.0365904 145.357978,0.1332936 C145.361434,0.258357837 145.328766,0.381767442 145.263888,0.4887432 C145.078943,0.85061133 144.870271,1.19985328 144.639238,1.5341832 C144.378667,1.92263734 144.080119,2.28422143 143.748,2.6136 C143.254477,3.13564271 142.687457,3.58291919 142.064842,3.9413088 C141.473954,4.24210772 140.822459,4.40475797 140.159527,4.416984 C139.833698,4.416984 139.543589,4.4091432 139.289198,4.3934616 C138.948825,4.3744196 138.607654,4.3744196 138.267281,4.3934616 C137.856614,4.4076392 137.451924,4.49619271 137.072866,4.6548216 C136.735469,4.7979281 136.412527,4.97296445 136.108447,5.1775416 C136.067743,5.1893416 136.025257,5.19376727 135.982994,5.1906096 C135.941177,5.1906096 135.915041,5.174928 135.904586,5.148792 C135.894132,5.122656 135.920268,5.0259528 136.006517,4.8534552 C136.167635,4.53028286 136.370629,4.22974642 136.610258,3.959604 C136.953108,3.56999286 137.337892,3.2193924 137.757629,2.914164 C138.163069,2.59504572 138.620055,2.34754856 139.10886,2.182356 C139.628438,2.04510449 140.167145,1.99476631 140.703156,2.0333808 Z M138.280349,11.2933656 L139.242154,9.0273744 C139.323175,8.8418088 139.385902,8.7503328 139.43556,8.7503328 C139.485218,8.7503328 139.540104,8.807832 139.511354,8.925444 C139.454683,9.14659115 139.411048,9.37087566 139.380674,9.5971392 C139.331887,9.9125136 139.295297,10.1608056 139.270903,10.3420152 C139.231699,10.6556472 139.195109,11.0110968 139.158518,11.4057504 C139.121928,11.800404 139.087951,12.205512 139.056588,12.6210744 C139.025225,13.0366368 138.996475,13.4443584 138.965112,13.839012 C138.933749,14.2336656 138.899772,14.5865016 138.863182,14.9027472 C138.793753,15.7005011 138.64134,16.4888426 138.408415,17.2549872 C138.217003,17.8468698 137.979303,18.4227689 137.697516,18.9773496 C137.436156,19.5000696 137.206159,19.7797248 137.038889,19.8032472 C136.997071,19.8032472 137.010139,19.693476 137.078093,19.47132 C137.170395,19.2152578 137.245486,18.9533144 137.302862,18.68724 C137.376043,18.373608 137.43877,18.03384 137.493655,17.6731632 C137.548541,17.3124864 137.598199,16.9439688 137.64263,16.5649968 C137.687062,16.1860248 137.721038,15.825348 137.752402,15.48558 C137.783765,15.145812 137.833423,14.6858184 137.864786,14.0481 C137.89615,13.4103816 137.940581,12.8693664 138.003307,12.4250544 C138.0514,12.0383475 138.144374,11.6585586 138.280349,11.2933656 L138.280349,11.2933656 Z" id="Shape" fill="#000000" fill-rule="nonzero"></path>
            </g>
        </g>
    </g>
</svg>